# Blender 4.4.3
# www.blender.org
mtllib table.mtl
o bolt
v 548.675781 154.180771 461.952515
v 548.675781 152.308762 461.952515
v 546.803772 154.180771 461.952515
v 546.803772 152.308762 461.952515
vn -0.0000 -0.0000 -1.0000
vt 0.574192 0.095116
vt 0.551577 0.072502
vt 0.574192 0.072501
vt 0.551577 0.095116
s 1
usemtl Material.007
f 2/1/1 3/2/1 1/3/1
f 2/1/1 4/4/1 3/2/1
o bolt.001
v 358.875763 154.180756 461.952515
v 358.875763 152.308746 461.952515
v 357.003754 154.180756 461.952515
v 357.003754 152.308746 461.952515
vn -0.0000 -0.0000 -1.0000
vt 0.574192 0.095116
vt 0.551577 0.072502
vt 0.574192 0.072501
vt 0.551577 0.095116
s 1
usemtl Material.007
f 6/5/2 7/6/2 5/7/2
f 6/5/2 8/8/2 7/6/2
o bolt.002
v 358.875732 154.180756 71.901009
v 358.875732 152.308746 71.901009
v 357.003723 154.180756 71.901009
v 357.003723 152.308746 71.901009
vn -0.0000 -0.0000 -1.0000
vt 0.574192 0.095116
vt 0.551577 0.072502
vt 0.574192 0.072501
vt 0.551577 0.095116
s 1
usemtl Material.007
f 10/9/3 11/10/3 9/11/3
f 10/9/3 12/12/3 11/10/3
o bolt.003
v 548.675720 154.180771 71.901001
v 548.675720 152.308762 71.901001
v 546.803772 154.180771 71.901001
v 546.803772 152.308762 71.901001
vn -0.0000 -0.0000 -1.0000
vt 0.574192 0.095116
vt 0.551577 0.072502
vt 0.574192 0.072501
vt 0.551577 0.095116
s 1
usemtl Material.007
f 14/13/4 15/14/4 13/15/4
f 14/13/4 16/16/4 15/14/4
o Cube
v 360.550415 -0.000034 77.129974
v 355.350433 -0.000034 77.129974
v 355.350403 155.999954 77.129974
v 360.550415 -0.000034 71.929970
v 355.350433 -0.000034 71.929970
v 355.350403 155.999954 71.929970
v 360.550415 150.799957 77.129974
v 360.550415 150.799957 71.929970
v 550.350464 0.000010 77.129967
v 550.350403 156.000015 77.129967
v 545.150452 0.000010 77.129967
v 550.350464 0.000010 71.929962
v 550.350403 156.000015 71.929962
v 545.150452 0.000010 71.929962
v 545.150391 150.800003 77.129967
v 545.150391 150.800003 71.929962
vn -0.0000 -0.0000 1.0000
vn -0.0000 -0.0000 -1.0000
vn -1.0000 -0.0000 -0.0000
vn -0.0000 -1.0000 -0.0000
vn 1.0000 -0.0000 -0.0000
vn -0.0000 1.0000 -0.0000
vt 0.932211 0.054535
vt 0.932211 0.527499
vt 0.919598 0.067147
vt 0.533967 0.476603
vt 0.521355 0.489215
vt 0.521354 0.016250
vt 0.521354 0.501827
vt 0.899704 0.489216
vt 0.899704 0.501827
vt 0.912317 0.476603
vt 0.912317 0.489216
vt 0.899704 0.463991
vt 0.899704 0.476603
vt 0.508742 0.016250
vt 0.899701 0.028861
vt 0.912313 0.016249
vt 0.912313 0.028860
vt 0.899701 0.003637
vt 0.899701 0.016249
vt 0.533967 0.041474
vt 0.899701 0.041473
vt 0.546579 0.028862
vt 0.533967 0.028862
vt 0.553863 0.067144
vt 0.553863 0.054533
vt 0.553863 0.527499
vt 0.553863 0.514887
vt 0.919598 0.514886
vt 0.533967 0.463991
vt 0.508742 0.489215
vt 0.521354 0.003638
vt 0.546580 0.476603
s 1
usemtl Material.007
f 26/17/5 19/18/5 31/19/5
f 24/20/6 22/21/6 29/22/6
f 19/23/7 21/24/7 18/25/7
f 21/24/8 17/26/8 18/27/8
f 24/20/9 17/28/9 20/29/9
f 22/21/10 26/30/10 29/22/10
f 30/31/8 25/32/8 27/33/8
f 29/22/9 25/34/9 28/35/9
f 31/36/7 30/31/7 27/37/7
f 31/38/8 24/20/8 32/39/8
f 27/40/5 25/41/5 26/17/5
f 19/18/5 18/42/5 17/43/5
f 19/18/5 17/43/5 23/44/5
f 31/19/5 27/40/5 26/17/5
f 19/18/5 23/44/5 31/19/5
f 24/20/6 20/29/6 21/24/6
f 29/22/6 28/35/6 30/31/6
f 29/22/6 30/31/6 32/39/6
f 24/20/6 21/24/6 22/21/6
f 29/22/6 32/39/6 24/20/6
f 19/23/7 22/21/7 21/24/7
f 21/24/8 20/29/8 17/26/8
f 24/20/9 23/45/9 17/28/9
f 22/21/10 19/46/10 26/30/10
f 30/31/8 28/35/8 25/32/8
f 29/22/9 26/47/9 25/34/9
f 31/36/7 32/39/7 30/31/7
f 31/38/8 23/48/8 24/20/8
o Cube.001
v 360.550446 -0.000034 461.930023
v 355.350464 -0.000034 461.930023
v 355.350433 155.999954 461.930023
v 360.550446 -0.000034 456.730011
v 355.350464 -0.000034 456.730011
v 355.350433 155.999954 456.730011
v 360.550415 150.799957 461.930023
v 360.550415 150.799957 456.730011
v 550.350464 0.000010 461.930023
v 550.350403 156.000015 461.930023
v 545.150452 0.000010 461.930023
v 550.350464 0.000010 456.730011
v 550.350403 156.000015 456.730011
v 545.150452 0.000010 456.730011
v 545.150452 150.800003 461.930023
v 545.150452 150.800003 456.730011
vn -0.0000 -0.0000 1.0000
vn -0.0000 -0.0000 -1.0000
vn -1.0000 -0.0000 -0.0000
vn -0.0000 -1.0000 -0.0000
vn 1.0000 -0.0000 -0.0000
vn -0.0000 1.0000 -0.0000
vt 0.932211 0.054535
vt 0.932211 0.527499
vt 0.919598 0.067147
vt 0.533967 0.476603
vt 0.521355 0.489215
vt 0.521354 0.016250
vt 0.521354 0.501827
vt 0.899704 0.489216
vt 0.899704 0.501827
vt 0.912317 0.476603
vt 0.912317 0.489216
vt 0.899704 0.463991
vt 0.899704 0.476603
vt 0.508742 0.016250
vt 0.899701 0.028861
vt 0.912313 0.016249
vt 0.912313 0.028860
vt 0.899701 0.003637
vt 0.899701 0.016249
vt 0.533967 0.041474
vt 0.899701 0.041473
vt 0.546579 0.028862
vt 0.533967 0.028862
vt 0.553863 0.067144
vt 0.553863 0.054533
vt 0.553863 0.527499
vt 0.553863 0.514887
vt 0.919598 0.514886
vt 0.533967 0.463991
vt 0.508742 0.489215
vt 0.521354 0.003638
vt 0.546580 0.476603
s 1
usemtl Material.007
f 42/49/11 35/50/11 47/51/11
f 40/52/12 38/53/12 45/54/12
f 35/55/13 37/56/13 34/57/13
f 37/56/14 33/58/14 34/59/14
f 40/52/15 33/60/15 36/61/15
f 38/53/16 42/62/16 45/54/16
f 46/63/14 41/64/14 43/65/14
f 45/54/15 41/66/15 44/67/15
f 47/68/13 46/63/13 43/69/13
f 47/70/14 40/52/14 48/71/14
f 43/72/11 41/73/11 42/49/11
f 35/50/11 34/74/11 33/75/11
f 35/50/11 33/75/11 39/76/11
f 47/51/11 43/72/11 42/49/11
f 35/50/11 39/76/11 47/51/11
f 40/52/12 36/61/12 37/56/12
f 45/54/12 44/67/12 46/63/12
f 45/54/12 46/63/12 48/71/12
f 40/52/12 37/56/12 38/53/12
f 45/54/12 48/71/12 40/52/12
f 35/55/13 38/53/13 37/56/13
f 37/56/14 36/61/14 33/58/14
f 40/52/15 39/77/15 33/60/15
f 38/53/16 35/78/16 42/62/16
f 46/63/14 44/67/14 41/64/14
f 45/54/15 42/79/15 41/66/15
f 47/68/13 48/71/13 46/63/13
f 47/70/14 39/80/14 40/52/14
o Cube.002
v 360.550415 150.799973 77.129959
v 360.550415 150.799988 456.729980
v 355.350403 150.799973 77.129959
v 355.350433 150.799988 456.729980
v 360.550415 155.999969 77.129959
v 360.550415 155.999985 456.729980
v 355.350403 155.999969 77.129959
v 355.350433 155.999985 456.729980
vn -0.0000 -1.0000 -0.0000
vn -1.0000 -0.0000 -0.0000
vn -0.0000 1.0000 -0.0000
vn 1.0000 -0.0000 -0.0000
vn -0.0000 -0.0000 -1.0000
vn -0.0000 -0.0000 1.0000
vt 0.967922 0.832632
vt 0.953702 0.017963
vt 0.967922 0.017915
vt 0.953702 0.832679
vt 0.939482 0.018011
vt 0.996362 0.832536
vt 0.982142 0.017868
vt 0.996362 0.017820
vt 0.982142 0.832584
vt 0.982094 0.003648
vt 0.967874 0.003695
vt 0.967970 0.846852
vt 0.982190 0.846804
vt 0.939482 0.832727
s 1
usemtl Material.007
f 50/81/17 51/82/17 49/83/17
f 52/84/18 55/85/18 51/82/18
f 56/86/19 53/87/19 55/88/19
f 54/89/20 49/83/20 53/87/20
f 55/90/21 49/83/21 51/91/21
f 52/92/22 54/89/22 56/93/22
f 50/81/17 52/84/17 51/82/17
f 52/84/18 56/94/18 55/85/18
f 56/86/19 54/89/19 53/87/19
f 54/89/20 50/81/20 49/83/20
f 55/90/21 53/87/21 49/83/21
f 52/92/22 50/81/22 54/89/22
o Cube.003
v 550.350403 150.799988 77.130013
v 550.350403 150.800003 456.730011
v 545.150391 150.799988 77.130013
v 545.150391 150.800003 456.730011
v 550.350403 155.999985 77.130013
v 550.350403 156.000000 456.730011
v 545.150391 155.999985 77.130013
v 545.150391 156.000000 456.730011
vn -0.0000 -1.0000 -0.0000
vn -1.0000 -0.0000 -0.0000
vn -0.0000 1.0000 -0.0000
vn 1.0000 -0.0000 -0.0000
vn -0.0000 -0.0000 -1.0000
vn -0.0000 -0.0000 1.0000
vt 0.967922 0.017915
vt 0.953702 0.832679
vt 0.953702 0.017963
vt 0.939482 0.018011
vt 0.996362 0.017820
vt 0.982142 0.832584
vt 0.982142 0.017868
vt 0.982094 0.003648
vt 0.967874 0.003695
vt 0.967970 0.846852
vt 0.982190 0.846804
vt 0.967922 0.832632
vt 0.939482 0.832727
vt 0.996362 0.832536
s 1
usemtl Material.007
f 57/95/23 60/96/23 59/97/23
f 60/96/24 63/98/24 59/97/24
f 63/99/25 62/100/25 61/101/25
f 62/100/26 57/95/26 61/101/26
f 63/102/27 57/95/27 59/103/27
f 60/104/28 62/100/28 64/105/28
f 57/95/23 58/106/23 60/96/23
f 60/96/24 64/107/24 63/98/24
f 63/99/25 64/108/25 62/100/25
f 62/100/26 58/106/26 57/95/26
f 63/102/27 61/101/27 57/95/27
f 60/104/28 58/106/28 62/100/28
o top
v 550.448853 155.998047 462.126770
v 550.448853 155.998047 71.733116
v 355.252045 155.998001 462.126770
v 355.252014 155.998001 71.733124
v 355.252045 159.901932 462.126770
v 550.448853 159.901978 462.126770
v 550.448853 159.901978 71.733116
v 355.252014 159.901932 71.733124
vn -0.0000 -1.0000 -0.0000
vn -0.0000 1.0000 -0.0000
vn -0.0000 -0.0000 -1.0000
vn -0.0000 -0.0000 1.0000
vn -1.0000 -0.0000 -0.0000
vn 1.0000 -0.0000 -0.0000
vt 0.019874 0.943653
vt 0.485231 0.012940
vt 0.485231 0.943653
vt 0.019874 0.012940
vt 0.485230 0.943653
vt 0.485230 0.003632
vt 0.019874 0.003634
vt 0.019874 0.952960
vt 0.485230 0.952958
vt 0.501474 0.943557
vt 0.485230 0.012940
vt 0.501474 0.012844
vt 0.003630 0.013035
vt 0.003630 0.943748
s 1
usemtl Material.007
f 67/109/29 66/110/29 65/111/29
f 71/112/30 69/113/30 70/109/30
f 68/114/31 71/112/31 66/115/31
f 65/116/32 69/113/32 67/117/32
f 67/118/33 72/119/33 68/120/33
f 66/121/34 70/109/34 65/122/34
f 67/109/29 68/112/29 66/110/29
f 71/112/30 72/119/30 69/113/30
f 68/114/31 72/119/31 71/112/31
f 65/116/32 70/109/32 69/113/32
f 67/118/33 69/113/33 72/119/33
f 66/121/34 71/112/34 70/109/34
