# Blender 4.4.3
# www.blender.org
mtllib water.mtl
o water
v 0.103934 -3.333372 -0.792808
v -0.054853 -3.330559 -0.775669
v -0.207565 -3.327889 -0.727686
v -0.348315 -3.325400 -0.650669
v -0.471682 -3.323122 -0.547550
v -0.572916 -3.321097 -0.422287
v -0.648117 -3.319377 -0.279700
v -0.694395 -3.318026 -0.125292
v -0.709970 -3.317119 0.034960
v -0.694248 -3.316725 0.194855
v -0.647839 -3.316900 0.348209
v -0.572532 -3.317672 0.489108
v -0.471232 -3.319032 0.612138
v -0.347840 -3.320940 0.712587
v -0.207107 -3.323330 0.786626
v -0.054453 -3.326122 0.831438
v 0.104249 -3.329224 0.845325
v 0.262893 -3.332540 0.827765
v 0.415381 -3.335962 0.779433
v 0.555860 -3.339361 0.702183
v 0.678940 -3.342577 0.598982
v 0.779914 -3.345429 0.473798
v 0.854925 -3.347722 0.331449
v 0.901114 -3.349282 0.177414
v 0.916722 -3.349990 0.017615
v 0.901152 -3.349805 -0.141818
v 0.854988 -3.348777 -0.294782
v 0.779978 -3.347032 -0.435431
v 0.678975 -3.344739 -0.558392
v 0.555833 -3.342079 -0.658961
v 0.415268 -3.339214 -0.733280
v 0.262678 -3.336279 -0.778484
v -0.081126 -2.709113 -0.873668
v 0.097525 -2.715104 -0.894237
v -0.252929 -2.703575 -0.818195
v -0.411234 -2.698511 -0.729837
v -0.549926 -2.693914 -0.611905
v -0.663661 -2.689795 -0.468894
v -0.748069 -2.686203 -0.306316
v -0.799913 -2.683265 -0.130509
v -0.817215 -2.681169 0.051625
v -0.799325 -2.680140 0.232913
v -0.746951 -2.680371 0.406237
v -0.662125 -2.681960 0.564856
v -0.548132 -2.684877 0.702698
v -0.409375 -2.688979 0.814569
v -0.251212 -2.694063 0.896316
v -0.079742 -2.699932 0.944921
v 0.098430 -2.706438 0.958586
v 0.276453 -2.713479 0.936788
v 0.447489 -2.720958 0.880318
v 0.604980 -2.728710 0.791288
v 0.742900 -2.736419 0.673081
v 0.855992 -2.743588 0.530251
v 0.939982 -2.749580 0.368346
v 0.991730 -2.753746 0.193668
v 1.009318 -2.755598 0.012985
v 0.992080 -2.754973 -0.166770
v 0.940618 -2.752072 -0.338783
v 0.856787 -2.747375 -0.496590
v 0.743676 -2.741474 -0.634271
v 0.605538 -2.734924 -0.746627
v 0.447647 -2.728163 -0.829359
v 0.276093 -2.721492 -0.879235
v -0.139414 -1.932851 -1.115355
v 0.088109 -1.947749 -1.142863
v -0.357719 -1.919874 -1.042941
v -0.558256 -1.909273 -0.928153
v -0.733395 -1.900600 -0.775142
v -0.876586 -1.893023 -0.589574
v -0.982494 -1.885917 -0.378510
v -1.047165 -1.879212 -0.150272
v -1.068185 -1.873486 0.085782
v -1.044802 -1.869808 0.319680
v -0.977972 -1.869297 0.541525
v -0.870333 -1.872545 0.742325
v -0.726109 -1.879252 0.914631
v -0.550973 -1.888356 1.052684
v -0.351844 -1.898536 1.152192
v -0.136597 -1.908753 1.210075
v 0.086380 -1.918707 1.224356
v 0.308755 -1.929215 1.194158
v 0.522700 -1.942193 1.119828
v 0.720743 -1.959485 1.003344
v 0.895257 -1.980970 0.848856
v 1.038822 -2.004125 0.662673
v 1.145453 -2.025294 0.452674
v 1.211348 -2.040885 0.227709
v 1.234708 -2.048309 -0.002966
v 1.215141 -2.047032 -0.230371
v 1.153226 -2.038796 -0.446341
v 1.050425 -2.026243 -0.643698
v 0.909423 -2.011320 -0.816069
v 0.735007 -1.995314 -0.957390
v 0.534314 -1.979276 -1.061845
v 0.315734 -1.963453 -1.124672
v -0.171874 -1.177985 -1.271291
v 0.088708 -1.204478 -1.302677
v -0.420861 -1.156540 -1.188469
v -0.648615 -1.141546 -1.057293
v -0.846943 -1.130819 -0.882384
v -1.008812 -1.121665 -0.669965
v -1.128379 -1.112297 -0.427859
v -1.201231 -1.102253 -0.165479
v -1.224649 -1.092484 0.106206
v -1.197797 -1.085158 0.374999
v -1.121800 -1.082808 0.628502
v -0.999695 -1.086866 0.855814
v -0.836329 -1.096592 1.048838
v -0.638252 -1.109411 1.202209
v -0.413619 -1.122125 1.312317
v -0.171993 -1.131819 1.376614
v 0.076180 -1.136400 1.393485
v 0.321192 -1.136495 1.361951
v 0.557164 -1.139874 1.280565
v 0.781467 -1.159759 1.148069
v 0.985506 -1.197449 0.968653
v 1.154867 -1.240184 0.752434
v 1.279650 -1.277575 0.510239
v 1.356195 -1.304439 0.252523
v 1.384188 -1.317987 -0.009982
v 1.364779 -1.319019 -0.266801
v 1.300046 -1.313264 -0.508421
v 1.191983 -1.307061 -0.727030
v 1.037388 -1.295864 -0.919581
v 0.835251 -1.273164 -1.083376
v 0.601633 -1.250641 -1.206804
v 0.349934 -1.229706 -1.281040
v -0.606096 -1.519055 -0.992060
v -0.391992 -1.533071 -1.115629
v 0.566592 -1.618008 -1.135215
v 0.783366 -1.637772 -1.021568
v 0.309852 -1.524914 1.281699
v 0.077559 -1.520549 1.312614
v -0.792554 -1.508891 -0.827397
v 0.331278 -1.598217 -1.203655
v 0.533743 -1.533074 1.203551
v -0.944705 -1.500413 -0.627595
v 0.086430 -1.575609 -1.223430
v 0.744501 -1.553235 1.078305
v -1.057059 -1.492095 -0.400115
v 0.934039 -1.585984 0.910152
v -1.125487 -1.483534 -0.153871
v 1.091156 -1.623058 0.707518
v -1.147443 -1.475525 0.100875
v 1.207443 -1.656282 0.480111
v -1.122144 -1.469823 0.352894
v 1.279074 -1.680409 0.237849
v -1.050635 -1.468402 0.590903
v 1.305216 -1.692335 -0.009114
v -0.935765 -1.472344 0.804898
v 1.286452 -1.692241 -0.251034
v -0.782088 -1.481070 0.987161
v 1.223992 -1.684206 -0.479295
v -0.595759 -1.492573 1.132284
v 1.118890 -1.672732 -0.686983
v -0.384386 -1.504324 1.236511
v -0.158084 -1.552398 -1.193696
v 0.970969 -1.657484 -0.869449
v -0.156792 -1.514077 1.297196
v 0.952213 -2.384048 -0.570316
v 1.046214 -2.392562 -0.392276
v -0.301593 -2.297913 1.023538
v -0.480463 -2.290266 0.932587
v -0.110311 -2.320982 -0.993734
v 0.092421 -2.330446 -1.017856
v 0.824799 -2.373733 -0.725541
v -0.107836 -2.306415 1.076895
v -0.305154 -2.312473 -0.929798
v 0.668637 -2.362654 -0.852214
v 0.093345 -2.315607 1.090735
v -0.484526 -2.304959 -0.828303
v 0.489726 -2.351507 -0.945448
v 0.294269 -2.325620 1.064447
v -0.641513 -2.298321 -0.692982
v 0.295094 -2.340691 -1.001466
v 0.487316 -2.336738 0.998817
v -0.770102 -2.292377 -0.528937
v 0.665159 -2.349100 0.896123
v -0.865396 -2.287035 -0.342483
v 0.820980 -2.362351 0.760181
v -0.923775 -2.282408 -0.140949
v 0.948775 -2.375496 0.596267
v -0.943033 -2.278849 0.067598
v 1.043687 -2.387033 0.410898
v -0.922467 -2.276863 0.274715
v 1.102254 -2.395320 0.211490
v -0.862904 -2.276935 0.472048
v 1.122445 -2.399100 0.005937
v -0.766675 -2.279312 0.651819
v 1.103575 -2.397984 -0.197845
v -0.637523 -2.283891 0.807212
v 0.101203 -3.024919 -0.843434
v 0.269859 -3.029258 -0.828696
v 0.581114 -3.034149 0.746637
v 0.432041 -3.028955 0.829594
v -0.697797 -3.004555 -0.293821
v -0.617941 -3.007082 -0.446193
v 0.711692 -3.039161 0.636124
v -0.746906 -3.002533 -0.128929
v 0.818792 -3.043688 0.502305
v -0.763386 -3.001136 0.042070
v 0.898342 -3.047382 0.350346
v -0.746612 -3.000492 0.212516
v 0.947332 -3.049913 0.186114
v -0.697238 -3.000700 0.375783
v 0.963913 -3.051040 0.015936
v -0.617175 -3.001814 0.525555
v 0.947452 -3.050682 -0.153663
v -0.509512 -3.003822 0.656082
v 0.898551 -3.048939 -0.316208
v -0.378403 -3.006649 0.762393
v 0.819034 -3.046056 -0.465525
v -0.228900 -3.010185 0.840465
v -0.067518 -3.020784 -0.824669
v 0.711894 -3.042351 -0.595938
v -0.066766 -3.014303 0.887362
v -0.229788 -3.016903 -0.773051
v 0.581197 -3.038146 -0.702489
v 0.101757 -3.018884 0.901321
v -0.379342 -3.013307 -0.690499
v 0.431940 -3.033713 -0.781088
v 0.270185 -3.023811 0.881818
v -0.510410 -3.010020 -0.580138
v -0.151153 -1.166091 -1.129765
v 0.082107 -1.197391 -1.158814
v -0.373231 -1.141755 -1.054554
v -0.575558 -1.126119 -0.936072
v -0.751196 -1.116198 -0.778530
v -0.894219 -1.108532 -0.587562
v -0.999637 -1.100900 -0.370239
v -1.063622 -1.092653 -0.135065
v -1.083788 -1.084628 0.108077
v -1.059401 -1.078786 0.348274
v -0.991465 -1.077371 0.574521
v -0.882705 -1.081616 0.777167
v -0.737494 -1.090826 0.949012
v -0.561786 -1.102580 1.085308
v -0.363063 -1.113640 1.182996
v -0.150237 -1.120611 1.240134
v 0.066824 -1.120472 1.255732
v 0.279242 -1.113164 1.229170
v 0.483828 -1.109005 1.158144
v 0.683027 -1.128240 1.038958
v 0.869398 -1.172604 0.875204
v 1.025401 -1.222108 0.678568
v 1.140093 -1.263232 0.460001
v 1.210407 -1.291716 0.228712
v 1.236591 -1.306468 -0.006151
v 1.220040 -1.309169 -0.235555
v 1.162759 -1.305024 -0.451209
v 1.066288 -1.299124 -0.646453
v 0.928276 -1.288215 -0.818380
v 0.748874 -1.268388 -0.964050
v 0.540963 -1.248136 -1.073974
v 0.316094 -1.226612 -1.140088
v -0.128966 -1.139136 -0.951440
v 0.069362 -1.173764 -0.977234
v -0.316612 -1.113728 -0.886133
v -0.486396 -1.099404 -0.783931
v -0.632987 -1.092303 -0.648598
v -0.751878 -1.088124 -0.485090
v -0.839164 -1.084169 -0.299558
v -0.891748 -1.079570 -0.099332
v -0.907661 -1.074955 0.107172
v -0.886279 -1.071915 0.310805
v -0.828444 -1.072198 0.502465
v -0.736478 -1.076716 0.674152
v -0.614149 -1.084864 0.819783
v -0.466642 -1.094554 0.935268
v -0.300559 -1.102701 1.018080
v -0.123878 -1.105591 1.066879
v 0.054482 -1.099429 1.081302
v 0.226912 -1.083656 1.061064
v 0.393190 -1.071061 1.002997
v 0.560910 -1.088561 0.900978
v 0.724048 -1.138269 0.757915
v 0.862378 -1.193272 0.586857
v 0.964041 -1.237087 0.398634
v 1.026423 -1.266421 0.200899
v 1.050134 -1.281946 0.000835
v 1.036592 -1.286027 -0.194396
v 0.987424 -1.282671 -0.378149
v 0.903761 -1.275312 -0.545057
v 0.785424 -1.263575 -0.691683
v 0.634611 -1.247215 -0.814360
v 0.459549 -1.229415 -0.906602
v 0.268704 -1.206607 -0.962090
v -0.107482 -1.084179 -0.731305
v 0.046274 -1.114325 -0.752307
v -0.251598 -1.064377 -0.679055
v -0.380703 -1.056070 -0.597721
v -0.491204 -1.055304 -0.490550
v -0.580177 -1.057582 -0.361713
v -0.644972 -1.060027 -0.216228
v -0.683376 -1.061593 -0.059911
v -0.693917 -1.062587 0.100752
v -0.676111 -1.064035 0.258900
v -0.630592 -1.067026 0.407817
v -0.559168 -1.072093 0.541544
v -0.464808 -1.078800 0.655357
v -0.351635 -1.085670 0.745898
v -0.224878 -1.090378 0.811054
v -0.090725 -1.090070 0.849741
v 0.044313 -1.082325 0.861569
v 0.175494 -1.068463 0.845848
v 0.303564 -1.059829 0.799727
v 0.433035 -1.074648 0.719282
v 0.559250 -1.114092 0.606988
v 0.668092 -1.159797 0.472323
v 0.749509 -1.197643 0.324145
v 0.800113 -1.223381 0.168845
v 0.819654 -1.237232 0.011918
v 0.808897 -1.240920 -0.141363
v 0.768920 -1.236768 -0.286071
v 0.700898 -1.226868 -0.417906
v 0.606366 -1.212497 -0.533193
v 0.488280 -1.194609 -0.628262
v 0.351547 -1.173364 -0.698954
v 0.201990 -1.146593 -0.741229
v -0.088212 -1.034645 -0.542332
v 0.026778 -1.055879 -0.558770
v -0.195229 -1.022927 -0.502042
v -0.290432 -1.020722 -0.439536
v -0.371274 -1.024940 -0.357436
v -0.435785 -1.031970 -0.259112
v -0.482209 -1.039293 -0.148526
v -0.509055 -1.045784 -0.030130
v -0.515310 -1.051373 0.091253
v -0.500650 -1.056541 0.210653
v -0.465563 -1.061857 0.323250
v -0.411402 -1.067602 0.424710
v -0.340390 -1.073539 0.511440
v -0.255564 -1.078880 0.580710
v -0.160660 -1.082439 0.630627
v -0.059840 -1.083049 0.659991
v 0.042895 -1.080452 0.668008
v 0.144702 -1.076854 0.653817
v 0.244594 -1.077920 0.616218
v 0.341919 -1.089768 0.554667
v 0.433057 -1.112493 0.471305
v 0.511461 -1.139492 0.371053
v 0.571210 -1.163603 0.259539
v 0.608926 -1.180815 0.141807
v 0.623305 -1.189866 0.022333
v 0.614235 -1.190982 -0.094740
v 0.582280 -1.185042 -0.205562
v 0.528527 -1.173090 -0.306603
v 0.454707 -1.156083 -0.394635
v 0.363451 -1.134825 -0.466599
v 0.258441 -1.109995 -0.519561
v 0.144352 -1.082681 -0.550912
v -0.069236 -1.015101 -0.410667
v 0.019241 -1.030128 -0.423814
v -0.151484 -1.007660 -0.379009
v -0.224560 -1.007492 -0.330088
v -0.286384 -1.012540 -0.265948
v -0.335385 -1.020289 -0.189255
v -0.370261 -1.028772 -0.103138
v -0.389965 -1.036892 -0.011076
v -0.393814 -1.044297 0.083232
v -0.381628 -1.051077 0.176022
v -0.353819 -1.057460 0.263658
v -0.311440 -1.063573 0.342826
v -0.256170 -1.069311 0.410697
v -0.190262 -1.074326 0.465011
v -0.116403 -1.078164 0.504080
v -0.037500 -1.080560 0.526714
v 0.043662 -1.081887 0.532094
v 0.124755 -1.083601 0.519640
v 0.203945 -1.088074 0.489090
v 0.279283 -1.097252 0.440925
v 0.347920 -1.110907 0.376908
v 0.406186 -1.126442 0.300064
v 0.450572 -1.140504 0.214072
v 0.478552 -1.150502 0.122684
v 0.488740 -1.155042 0.029486
v 0.480685 -1.153690 -0.062146
v 0.454659 -1.146609 -0.149051
v 0.411553 -1.134293 -0.228295
v 0.352897 -1.117431 -0.297170
v 0.280945 -1.096922 -0.353196
v 0.198732 -1.074054 -0.394135
v 0.110047 -1.050826 -0.418115
v -0.023052 -3.330660 -0.612699
v 0.103488 -3.333096 -0.626472
v -0.144746 -3.328334 -0.574340
v -0.256908 -3.326164 -0.512847
v -0.355217 -3.324191 -0.430567
v -0.435888 -3.322458 -0.330655
v -0.495814 -3.321012 -0.216958
v -0.532693 -3.319904 -0.093862
v -0.545104 -3.319190 0.033876
v -0.532574 -3.318917 0.161322
v -0.495589 -3.319119 0.283553
v -0.435576 -3.319815 0.395858
v -0.354847 -3.320994 0.493919
v -0.256511 -3.322627 0.573978
v -0.144356 -3.324658 0.632974
v -0.022698 -3.327024 0.668658
v 0.103783 -3.329643 0.679675
v 0.230222 -3.332428 0.665611
v 0.351762 -3.335278 0.627009
v 0.463735 -3.338076 0.565355
v 0.561849 -3.340693 0.483019
v 0.642346 -3.342988 0.383168
v 0.702148 -3.344820 0.269640
v 0.738971 -3.346069 0.146802
v 0.751408 -3.346652 0.019370
v 0.738983 -3.346543 -0.107765
v 0.702163 -3.345770 -0.229735
v 0.642348 -3.344416 -0.341871
v 0.561819 -3.342595 -0.439885
v 0.463654 -3.340436 -0.520021
v 0.351613 -3.338064 -0.579205
v 0.229999 -3.335587 -0.615154
v 0.012035 -3.330836 -0.433356
v 0.103102 -3.332727 -0.443353
v -0.075543 -3.329016 -0.405662
v -0.156258 -3.327315 -0.361324
v -0.227004 -3.325775 -0.302036
v -0.285057 -3.324437 -0.230077
v -0.328183 -3.323340 -0.148214
v -0.354722 -3.322524 -0.059600
v -0.363656 -3.322021 0.032345
v -0.354640 -3.321861 0.124074
v -0.328025 -3.322063 0.212052
v -0.284837 -3.322633 0.292888
v -0.226739 -3.323561 0.363476
v -0.155969 -3.324822 0.421105
v -0.075251 -3.326378 0.463567
v 0.012310 -3.328177 0.489240
v 0.103346 -3.330155 0.497146
v 0.194358 -3.332242 0.486986
v 0.281848 -3.334355 0.459157
v 0.362458 -3.336406 0.414729
v 0.433097 -3.338303 0.355413
v 0.491057 -3.339949 0.283489
v 0.534116 -3.341255 0.201720
v 0.560628 -3.342148 0.113251
v 0.569577 -3.342582 0.021474
v 0.560619 -3.342536 -0.070087
v 0.534094 -3.342027 -0.157923
v 0.491013 -3.341097 -0.238667
v 0.433025 -3.339814 -0.309228
v 0.362347 -3.338255 -0.366898
v 0.281692 -3.336504 -0.409461
v 0.194155 -3.334637 -0.435281
v 0.038837 -3.331013 -0.296767
v 0.102897 -3.332407 -0.303838
v -0.022765 -3.329663 -0.277245
v -0.079539 -3.328399 -0.246018
v -0.129300 -3.327255 -0.204284
v -0.170134 -3.326269 -0.153643
v -0.200468 -3.325470 -0.096044
v -0.219136 -3.324885 -0.033704
v -0.225421 -3.324539 0.030975
v -0.219082 -3.324449 0.095501
v -0.200363 -3.324623 0.157389
v -0.169986 -3.325063 0.214257
v -0.129121 -3.325758 0.263916
v -0.079340 -3.326691 0.304462
v -0.022559 -3.327830 0.334338
v 0.039037 -3.329136 0.352400
v 0.103082 -3.330564 0.357958
v 0.167113 -3.332059 0.350802
v 0.228670 -3.333561 0.331210
v 0.285390 -3.335006 0.299937
v 0.335096 -3.336331 0.258188
v 0.375882 -3.337475 0.207566
v 0.406183 -3.338381 0.150017
v 0.424838 -3.339005 0.087751
v 0.431132 -3.339316 0.023158
v 0.424822 -3.339303 -0.041283
v 0.406149 -3.338974 -0.103099
v 0.375826 -3.338351 -0.159919
v 0.335016 -3.337472 -0.209566
v 0.285283 -3.336385 -0.250133
v 0.228534 -3.335143 -0.280060
v 0.166950 -3.333799 -0.298196
v 0.062205 -3.331192 -0.178014
v 0.102786 -3.332103 -0.182512
v 0.023183 -3.330304 -0.165628
v -0.012780 -3.329470 -0.145829
v -0.044300 -3.328715 -0.119377
v -0.070165 -3.328066 -0.087288
v -0.089381 -3.327545 -0.050797
v -0.101207 -3.327170 -0.011305
v -0.105189 -3.326955 0.029666
v -0.101175 -3.326910 0.070541
v -0.089319 -3.327039 0.109746
v -0.070078 -3.327340 0.145771
v -0.044193 -3.327805 0.177233
v -0.012659 -3.328419 0.202924
v 0.023311 -3.329162 0.221855
v 0.062333 -3.330008 0.233301
v 0.102909 -3.330925 0.236824
v 0.143478 -3.331877 0.232290
v 0.182482 -3.332828 0.219876
v 0.218423 -3.333737 0.200058
v 0.249921 -3.334566 0.173601
v 0.275767 -3.335278 0.141520
v 0.294968 -3.335843 0.105048
v 0.306789 -3.336234 0.065587
v 0.310775 -3.336435 0.024651
v 0.306773 -3.336438 -0.016189
v 0.294936 -3.336246 -0.055364
v 0.275717 -3.335871 -0.091371
v 0.249855 -3.335331 -0.122828
v 0.218340 -3.334653 -0.148526
v 0.182383 -3.333867 -0.167478
v 0.143365 -3.333006 -0.178955
vn -0.0200 -0.7429 -0.6691
vn -0.1505 -0.7419 -0.6534
vn -0.2749 -0.7410 -0.6127
vn -0.3886 -0.7402 -0.5488
vn -0.4872 -0.7396 -0.4644
vn -0.5673 -0.7392 -0.3630
vn -0.6260 -0.7392 -0.2485
vn -0.6614 -0.7395 -0.1252
vn -0.6723 -0.7402 0.0025
vn -0.6585 -0.7413 0.1302
vn -0.6202 -0.7425 0.2532
vn -0.5586 -0.7438 0.3671
vn -0.4758 -0.7450 0.4675
vn -0.3750 -0.7460 0.5504
vn -0.2600 -0.7466 0.6124
vn -0.1351 -0.7469 0.6511
vn -0.0053 -0.7469 0.6649
vn 0.1246 -0.7467 0.6534
vn 0.2497 -0.7464 0.6168
vn 0.3652 -0.7463 0.5565
vn 0.4667 -0.7462 0.4747
vn 0.5503 -0.7464 0.3743
vn 0.6126 -0.7467 0.2591
vn 0.6511 -0.7472 0.1332
vn 0.6641 -0.7476 0.0015
vn 0.6508 -0.7479 -0.1308
vn 0.6114 -0.7479 -0.2585
vn 0.5474 -0.7475 -0.3761
vn 0.4615 -0.7469 -0.4787
vn 0.3572 -0.7460 -0.5620
vn 0.2389 -0.7450 -0.6228
vn 0.1115 -0.7440 -0.6588
vn -0.2142 -0.2338 -0.9484
vn -0.0240 -0.2358 -0.9715
vn -0.3954 -0.2317 -0.8888
vn -0.5609 -0.2297 -0.7954
vn -0.7042 -0.2281 -0.6724
vn -0.8202 -0.2274 -0.5250
vn -0.9051 -0.2279 -0.3591
vn -0.9562 -0.2301 -0.1807
vn -0.9722 -0.2342 0.0040
vn -0.9522 -0.2397 0.1894
vn -0.8963 -0.2460 0.3690
vn -0.8056 -0.2519 0.5363
vn -0.6829 -0.2564 0.6840
vn -0.5332 -0.2587 0.8055
vn -0.3625 -0.2585 0.8954
vn -0.1781 -0.2561 0.9501
vn 0.0127 -0.2519 0.9677
vn 0.2024 -0.2464 0.9478
vn 0.3838 -0.2403 0.8916
vn 0.5499 -0.2343 0.8017
vn 0.6947 -0.2292 0.6818
vn 0.8131 -0.2258 0.5365
vn 0.9010 -0.2245 0.3711
vn 0.9553 -0.2256 0.1911
vn 0.9735 -0.2285 0.0024
vn 0.9542 -0.2325 -0.1884
vn 0.8969 -0.2364 -0.3736
vn 0.8036 -0.2392 -0.5450
vn 0.6780 -0.2404 -0.6947
vn 0.5257 -0.2403 -0.8160
vn 0.3533 -0.2393 -0.9044
vn 0.1676 -0.2377 -0.9568
vn -0.2263 -0.2563 -0.9397
vn -0.0368 -0.2603 -0.9648
vn -0.4061 -0.2526 -0.8782
vn -0.5700 -0.2492 -0.7829
vn -0.7115 -0.2461 -0.6581
vn -0.8251 -0.2435 -0.5099
vn -0.9069 -0.2418 -0.3449
vn -0.9552 -0.2422 -0.1699
vn -0.9694 -0.2454 0.0100
vn -0.9489 -0.2513 0.1907
vn -0.8931 -0.2591 0.3678
vn -0.8016 -0.2668 0.5350
vn -0.6769 -0.2725 0.6838
vn -0.5249 -0.2751 0.8055
vn -0.3531 -0.2747 0.8943
vn -0.1689 -0.2719 0.9474
vn 0.0219 -0.2666 0.9636
vn 0.2121 -0.2582 0.9425
vn 0.3926 -0.2476 0.8858
vn 0.5547 -0.2379 0.7973
vn 0.6947 -0.2326 0.6807
vn 0.8099 -0.2323 0.5386
vn 0.8963 -0.2357 0.3756
vn 0.9500 -0.2417 0.1978
vn 0.9683 -0.2496 0.0110
vn 0.9492 -0.2586 -0.1794
vn 0.8913 -0.2671 -0.3664
vn 0.7952 -0.2723 -0.5418
vn 0.6659 -0.2724 -0.6945
vn 0.5126 -0.2694 -0.8153
vn 0.3412 -0.2664 -0.9015
vn 0.1554 -0.2638 -0.9520
vn -0.1213 0.5802 -0.8054
vn 0.0473 0.5852 -0.8095
vn -0.2959 0.5750 -0.7627
vn -0.4553 0.5721 -0.6823
vn -0.5861 0.5726 -0.5732
vn -0.6851 0.5761 -0.4459
vn -0.7534 0.5811 -0.3078
vn -0.7933 0.5867 -0.1625
vn -0.8058 0.5920 -0.0108
vn -0.7894 0.5959 0.1477
vn -0.7400 0.5970 0.3098
vn -0.6554 0.5947 0.4655
vn -0.5401 0.5903 0.5998
vn -0.4057 0.5854 0.7019
vn -0.2646 0.5799 0.7705
vn -0.1232 0.5715 0.8113
vn 0.0220 0.5581 0.8295
vn 0.1857 0.5452 0.8175
vn 0.3711 0.5436 0.7529
vn 0.5423 0.5466 0.6381
vn 0.6649 0.5498 0.5056
vn 0.7426 0.5564 0.3729
vn 0.7899 0.5631 0.2430
vn 0.8148 0.5677 0.1179
vn 0.8205 0.5716 -0.0054
vn 0.8054 0.5769 -0.1359
vn 0.7646 0.5808 -0.2793
vn 0.6980 0.5752 -0.4265
vn 0.6045 0.5743 -0.5520
vn 0.4840 0.5908 -0.6455
vn 0.3455 0.5966 -0.7243
vn 0.2002 0.5909 -0.7815
vn -0.5789 -0.2010 -0.7902
vn -0.4131 -0.2035 -0.8876
vn 0.3493 -0.2139 -0.9123
vn 0.5218 -0.2169 -0.8250
vn 0.2199 -0.2051 0.9537
vn 0.0264 -0.2107 0.9772
vn -0.7219 -0.1988 -0.6628
vn 0.1595 -0.2122 -0.9641
vn 0.4018 -0.1971 0.8943
vn -0.8363 -0.1967 -0.5119
vn -0.0381 -0.2097 -0.9770
vn 0.5615 -0.1899 0.8054
vn -0.9182 -0.1952 -0.3447
vn 0.6991 -0.1868 0.6902
vn -0.9662 -0.1951 -0.1683
vn 0.8152 -0.1879 0.5479
vn -0.9803 -0.1970 0.0123
vn 0.9038 -0.1911 0.3829
vn -0.9602 -0.2011 0.1940
vn 0.9594 -0.1952 0.2035
vn -0.9043 -0.2065 0.3737
vn 0.9796 -0.2004 0.0166
vn -0.8113 -0.2118 0.5449
vn 0.9629 -0.2072 -0.1730
vn -0.6834 -0.2154 0.6976
vn 0.9078 -0.2152 -0.3601
vn -0.5276 -0.2165 0.8214
vn 0.8118 -0.2214 -0.5403
vn -0.3530 -0.2158 0.9104
vn -0.2312 -0.2064 -0.9508
vn 0.6782 -0.2213 -0.7007
vn -0.1666 -0.2139 0.9625
vn 0.7813 -0.3189 -0.5365
vn 0.8752 -0.3158 -0.3666
vn -0.3533 -0.3266 0.8767
vn -0.5210 -0.3265 0.7886
vn -0.2191 -0.3050 -0.9268
vn -0.0331 -0.3084 -0.9507
vn 0.6561 -0.3191 -0.6839
vn -0.1724 -0.3241 0.9302
vn -0.3962 -0.3017 -0.8672
vn 0.5057 -0.3172 -0.8022
vn 0.0146 -0.3194 0.9475
vn -0.5577 -0.2985 -0.7745
vn 0.3366 -0.3146 -0.8876
vn 0.2005 -0.3129 0.9284
vn -0.6974 -0.2956 -0.6529
vn 0.1546 -0.3116 -0.9375
vn 0.3779 -0.3054 0.8740
vn -0.8100 -0.2934 -0.5077
vn 0.5399 -0.2986 0.7870
vn -0.8917 -0.2925 -0.3453
vn 0.6808 -0.2938 0.6710
vn -0.9404 -0.2937 -0.1717
vn 0.7963 -0.2920 0.5298
vn -0.9548 -0.2973 0.0074
vn 0.8823 -0.2933 0.3683
vn -0.9344 -0.3033 0.1868
vn 0.9353 -0.2973 0.1918
vn -0.8791 -0.3107 0.3614
vn 0.9528 -0.3034 0.0059
vn -0.7897 -0.3180 0.5247
vn 0.9330 -0.3101 -0.1828
vn -0.6686 -0.3236 0.6695
vn -0.0159 -0.1620 -0.9867
vn 0.1785 -0.1629 -0.9704
vn 0.5576 -0.1636 0.8138
vn 0.3887 -0.1689 0.9058
vn -0.9153 -0.1602 -0.3696
vn -0.8276 -0.1588 -0.5384
vn 0.7048 -0.1590 0.6913
vn -0.9687 -0.1627 -0.1874
vn 0.8252 -0.1554 0.5431
vn -0.9860 -0.1665 0.0019
vn 0.9144 -0.1533 0.3746
vn -0.9664 -0.1711 0.1917
vn 0.9695 -0.1529 0.1918
vn -0.9100 -0.1759 0.3755
vn 0.9881 -0.1539 0.0008
vn -0.8182 -0.1803 0.5459
vn 0.9690 -0.1561 -0.1916
vn -0.6941 -0.1835 0.6961
vn 0.9122 -0.1586 -0.3779
vn -0.5424 -0.1849 0.8195
vn 0.8192 -0.1609 -0.5504
vn -0.3694 -0.1846 0.9107
vn -0.2091 -0.1609 -0.9646
vn 0.6937 -0.1625 -0.7017
vn -0.1823 -0.1824 0.9662
vn -0.3935 -0.1598 -0.9053
vn 0.5406 -0.1633 -0.8253
vn 0.0115 -0.1788 0.9838
vn -0.5621 -0.1589 -0.8117
vn 0.3665 -0.1634 -0.9159
vn 0.2043 -0.1741 0.9633
vn -0.7085 -0.1585 -0.6877
vn 0.0902 0.9885 -0.1215
vn 0.1240 0.9891 -0.0793
vn 0.0274 0.9899 -0.1389
vn -0.0284 0.9914 -0.1277
vn -0.0601 0.9929 -0.1030
vn -0.0706 0.9944 -0.0786
vn -0.0694 0.9958 -0.0596
vn -0.0634 0.9970 -0.0439
vn -0.0554 0.9981 -0.0271
vn -0.0445 0.9990 -0.0058
vn -0.0293 0.9994 0.0192
vn -0.0105 0.9990 0.0430
vn 0.0070 0.9982 0.0599
vn 0.0171 0.9975 0.0685
vn 0.0148 0.9971 0.0744
vn 0.0002 0.9960 0.0891
vn -0.0138 0.9922 0.1242
vn 0.0129 0.9858 0.1677
vn 0.1091 0.9810 0.1605
vn 0.2104 0.9747 0.0750
vn 0.2366 0.9713 -0.0238
vn 0.2029 0.9761 -0.0774
vn 0.1573 0.9839 -0.0853
vn 0.1227 0.9903 -0.0651
vn 0.1029 0.9941 -0.0343
vn 0.0941 0.9955 -0.0114
vn 0.0908 0.9958 -0.0082
vn 0.0940 0.9955 -0.0129
vn 0.1057 0.9944 -0.0086
vn 0.1084 0.9941 -0.0075
vn 0.1038 0.9944 -0.0182
vn 0.1162 0.9924 -0.0399
vn 0.0968 0.9752 -0.1989
vn 0.1543 0.9730 -0.1718
vn 0.0108 0.9807 -0.1951
vn -0.0599 0.9850 -0.1616
vn -0.0954 0.9885 -0.1177
vn -0.1012 0.9917 -0.0796
vn -0.0909 0.9945 -0.0523
vn -0.0747 0.9967 -0.0328
vn -0.0571 0.9982 -0.0159
vn -0.0389 0.9992 0.0023
vn -0.0200 0.9995 0.0224
vn -0.0015 0.9991 0.0413
vn 0.0126 0.9984 0.0549
vn 0.0169 0.9979 0.0624
vn 0.0069 0.9977 0.0678
vn -0.0192 0.9967 0.0793
vn -0.0492 0.9933 0.1047
vn -0.0358 0.9908 0.1309
vn 0.0659 0.9921 0.1068
vn 0.1936 0.9809 0.0182
vn 0.2461 0.9670 -0.0663
vn 0.2300 0.9681 -0.0998
vn 0.1970 0.9759 -0.0942
vn 0.1716 0.9827 -0.0700
vn 0.1581 0.9865 -0.0424
vn 0.1542 0.9877 -0.0253
vn 0.1557 0.9874 -0.0273
vn 0.1612 0.9860 -0.0419
vn 0.1672 0.9842 -0.0578
vn 0.1635 0.9834 -0.0785
vn 0.1573 0.9819 -0.1055
vn 0.1632 0.9772 -0.1358
vn 0.0917 0.9633 -0.2524
vn 0.1758 0.9530 -0.2467
vn -0.0128 0.9746 -0.2236
vn -0.0940 0.9812 -0.1684
vn -0.1314 0.9854 -0.1087
vn -0.1324 0.9893 -0.0607
vn -0.1135 0.9931 -0.0281
vn -0.0874 0.9961 -0.0073
vn -0.0607 0.9981 0.0076
vn -0.0358 0.9991 0.0208
vn -0.0136 0.9993 0.0336
vn 0.0045 0.9990 0.0448
vn 0.0156 0.9985 0.0521
vn 0.0159 0.9984 0.0545
vn 0.0016 0.9986 0.0528
vn -0.0286 0.9984 0.0492
vn -0.0647 0.9969 0.0442
vn -0.0657 0.9974 0.0287
vn 0.0141 0.9997 -0.0177
vn 0.1314 0.9878 -0.0839
vn 0.2033 0.9713 -0.1236
vn 0.2208 0.9676 -0.1226
vn 0.2164 0.9713 -0.0989
vn 0.2104 0.9751 -0.0698
vn 0.2096 0.9768 -0.0451
vn 0.2140 0.9763 -0.0326
vn 0.2218 0.9744 -0.0373
vn 0.2302 0.9714 -0.0577
vn 0.2355 0.9677 -0.0897
vn 0.2332 0.9634 -0.1318
vn 0.2261 0.9578 -0.1777
vn 0.2146 0.9521 -0.2179
vn 0.0909 0.9730 -0.2120
vn 0.1855 0.9577 -0.2202
vn -0.0146 0.9847 -0.1736
vn -0.0952 0.9887 -0.1161
vn -0.1333 0.9893 -0.0590
vn -0.1353 0.9907 -0.0151
vn -0.1161 0.9931 0.0136
vn -0.0882 0.9956 0.0305
vn -0.0590 0.9974 0.0406
vn -0.0321 0.9984 0.0474
vn -0.0093 0.9986 0.0524
vn 0.0080 0.9984 0.0554
vn 0.0179 0.9983 0.0552
vn 0.0183 0.9986 0.0505
vn 0.0074 0.9992 0.0401
vn -0.0142 0.9996 0.0227
vn -0.0375 0.9993 -0.0035
vn -0.0369 0.9985 -0.0404
vn 0.0138 0.9963 -0.0847
vn 0.0936 0.9883 -0.1200
vn 0.1579 0.9790 -0.1292
vn 0.1949 0.9743 -0.1133
vn 0.2147 0.9730 -0.0852
vn 0.2279 0.9720 -0.0570
vn 0.2400 0.9701 -0.0360
vn 0.2529 0.9671 -0.0262
vn 0.2662 0.9634 -0.0304
vn 0.2781 0.9593 -0.0491
vn 0.2856 0.9549 -0.0810
vn 0.2853 0.9505 -0.1228
vn 0.2743 0.9472 -0.1664
vn 0.2454 0.9482 -0.2018
vn 0.1073 0.9921 -0.0649
vn 0.1576 0.9849 -0.0715
vn 0.0536 0.9976 -0.0446
vn 0.0131 0.9998 -0.0167
vn -0.0063 0.9999 0.0095
vn -0.0078 0.9995 0.0291
vn 0.0012 0.9991 0.0413
vn 0.0148 0.9987 0.0481
vn 0.0293 0.9982 0.0517
vn 0.0427 0.9977 0.0534
vn 0.0541 0.9971 0.0541
vn 0.0629 0.9966 0.0537
vn 0.0681 0.9963 0.0516
vn 0.0690 0.9965 0.0473
vn 0.0652 0.9971 0.0399
vn 0.0579 0.9979 0.0285
vn 0.0515 0.9986 0.0129
vn 0.0555 0.9984 -0.0061
vn 0.0763 0.9968 -0.0244
vn 0.1072 0.9936 -0.0361
vn 0.1352 0.9901 -0.0375
vn 0.1554 0.9874 -0.0297
vn 0.1696 0.9854 -0.0172
vn 0.1806 0.9835 -0.0043
vn 0.1902 0.9817 0.0055
vn 0.1994 0.9799 0.0103
vn 0.2080 0.9781 0.0087
vn 0.2152 0.9766 0.0004
vn 0.2196 0.9755 -0.0139
vn 0.2193 0.9751 -0.0321
vn 0.2117 0.9760 -0.0507
vn 0.1926 0.9791 -0.0653
vn -0.0184 -0.9998 0.0028
vn -0.0192 -0.9998 0.0018
vn -0.0174 -0.9998 0.0037
vn -0.0165 -0.9999 0.0044
vn -0.0156 -0.9999 0.0048
vn -0.0148 -0.9999 0.0050
vn -0.0143 -0.9999 0.0049
vn -0.0140 -0.9999 0.0045
vn -0.0140 -0.9999 0.0039
vn -0.0143 -0.9999 0.0032
vn -0.0150 -0.9999 0.0024
vn -0.0159 -0.9999 0.0018
vn -0.0170 -0.9999 0.0014
vn -0.0181 -0.9998 0.0013
vn -0.0193 -0.9998 0.0015
vn -0.0203 -0.9998 0.0020
vn -0.0211 -0.9998 0.0027
vn -0.0218 -0.9998 0.0035
vn -0.0222 -0.9997 0.0042
vn -0.0223 -0.9997 0.0048
vn -0.0223 -0.9997 0.0050
vn -0.0220 -0.9997 0.0048
vn -0.0217 -0.9998 0.0041
vn -0.0214 -0.9998 0.0031
vn -0.0212 -0.9998 0.0018
vn -0.0211 -0.9998 0.0006
vn -0.0211 -0.9998 -0.0004
vn -0.0211 -0.9998 -0.0010
vn -0.0211 -0.9998 -0.0011
vn -0.0209 -0.9998 -0.0008
vn -0.0205 -0.9998 -0.0001
vn -0.0200 -0.9998 0.0008
vn -0.0199 -0.9998 0.0028
vn -0.0205 -0.9998 0.0021
vn -0.0191 -0.9998 0.0033
vn -0.0185 -0.9998 0.0038
vn -0.0178 -0.9998 0.0041
vn -0.0173 -0.9998 0.0042
vn -0.0170 -0.9998 0.0042
vn -0.0168 -0.9999 0.0040
vn -0.0168 -0.9999 0.0037
vn -0.0171 -0.9998 0.0032
vn -0.0175 -0.9998 0.0028
vn -0.0182 -0.9998 0.0025
vn -0.0189 -0.9998 0.0022
vn -0.0198 -0.9998 0.0021
vn -0.0206 -0.9998 0.0023
vn -0.0214 -0.9998 0.0025
vn -0.0221 -0.9998 0.0029
vn -0.0226 -0.9997 0.0033
vn -0.0230 -0.9997 0.0037
vn -0.0232 -0.9997 0.0040
vn -0.0233 -0.9997 0.0041
vn -0.0233 -0.9997 0.0039
vn -0.0232 -0.9997 0.0035
vn -0.0230 -0.9997 0.0028
vn -0.0229 -0.9997 0.0021
vn -0.0228 -0.9997 0.0013
vn -0.0227 -0.9997 0.0007
vn -0.0226 -0.9997 0.0004
vn -0.0224 -0.9997 0.0003
vn -0.0221 -0.9998 0.0005
vn -0.0217 -0.9998 0.0009
vn -0.0212 -0.9998 0.0015
vn -0.0210 -0.9998 0.0028
vn -0.0215 -0.9998 0.0024
vn -0.0205 -0.9998 0.0031
vn -0.0201 -0.9998 0.0033
vn -0.0197 -0.9998 0.0035
vn -0.0194 -0.9998 0.0036
vn -0.0191 -0.9998 0.0037
vn -0.0190 -0.9998 0.0036
vn -0.0191 -0.9998 0.0034
vn -0.0193 -0.9998 0.0032
vn -0.0196 -0.9998 0.0030
vn -0.0200 -0.9998 0.0028
vn -0.0205 -0.9998 0.0027
vn -0.0210 -0.9998 0.0027
vn -0.0216 -0.9998 0.0027
vn -0.0222 -0.9998 0.0028
vn -0.0227 -0.9997 0.0030
vn -0.0231 -0.9997 0.0032
vn -0.0234 -0.9997 0.0033
vn -0.0237 -0.9997 0.0034
vn -0.0238 -0.9997 0.0034
vn -0.0239 -0.9997 0.0033
vn -0.0238 -0.9997 0.0030
vn -0.0238 -0.9997 0.0027
vn -0.0237 -0.9997 0.0023
vn -0.0236 -0.9997 0.0019
vn -0.0235 -0.9997 0.0016
vn -0.0233 -0.9997 0.0014
vn -0.0231 -0.9997 0.0014
vn -0.0228 -0.9997 0.0015
vn -0.0225 -0.9997 0.0017
vn -0.0220 -0.9998 0.0020
vn -0.0221 -0.9998 0.0028
vn -0.0223 -0.9997 0.0027
vn -0.0219 -0.9998 0.0029
vn -0.0217 -0.9998 0.0030
vn -0.0215 -0.9998 0.0031
vn -0.0213 -0.9998 0.0031
vn -0.0214 -0.9998 0.0030
vn -0.0215 -0.9998 0.0030
vn -0.0217 -0.9998 0.0029
vn -0.0223 -0.9997 0.0028
vn -0.0226 -0.9997 0.0029
vn -0.0228 -0.9997 0.0029
vn -0.0230 -0.9997 0.0030
vn -0.0231 -0.9997 0.0030
vn -0.0233 -0.9997 0.0030
vn -0.0234 -0.9997 0.0030
vn -0.0234 -0.9997 0.0029
vn -0.0234 -0.9997 0.0027
vn -0.0233 -0.9997 0.0026
vn -0.0233 -0.9997 0.0025
vn -0.0232 -0.9997 0.0024
vn -0.0232 -0.9997 0.0023
vn -0.0230 -0.9997 0.0023
vn -0.0229 -0.9997 0.0023
vn -0.0227 -0.9997 0.0024
vn -0.0225 -0.9997 0.0025
vt 0.000000 0.000000
s 1
usemtl water
f 25/1/25 24/1/24 408/1/408 409/1/409
f 162/1/162 161/1/161 92/1/92 91/1/91
f 194/1/194 193/1/193 34/1/34 64/1/64
f 196/1/196 195/1/195 52/1/52 51/1/51
f 198/1/198 197/1/197 39/1/39 38/1/38
f 195/1/195 199/1/199 53/1/53 52/1/52
f 197/1/197 200/1/200 40/1/40 39/1/39
f 199/1/199 201/1/201 54/1/54 53/1/53
f 200/1/200 202/1/202 41/1/41 40/1/40
f 201/1/201 203/1/203 55/1/55 54/1/54
f 202/1/202 204/1/204 42/1/42 41/1/41
f 203/1/203 205/1/205 56/1/56 55/1/55
f 204/1/204 206/1/206 43/1/43 42/1/42
f 205/1/205 207/1/207 57/1/57 56/1/56
f 206/1/206 208/1/208 44/1/44 43/1/43
f 207/1/207 209/1/209 58/1/58 57/1/57
f 208/1/208 210/1/210 45/1/45 44/1/44
f 209/1/209 211/1/211 59/1/59 58/1/58
f 210/1/210 212/1/212 46/1/46 45/1/45
f 211/1/211 213/1/213 60/1/60 59/1/59
f 212/1/212 214/1/214 47/1/47 46/1/46
f 193/1/193 215/1/215 33/1/33 34/1/34
f 213/1/213 216/1/216 61/1/61 60/1/60
f 214/1/214 217/1/217 48/1/48 47/1/47
f 215/1/215 218/1/218 35/1/35 33/1/33
f 216/1/216 219/1/219 62/1/62 61/1/61
f 217/1/217 220/1/220 49/1/49 48/1/48
f 218/1/218 221/1/221 36/1/36 35/1/35
f 219/1/219 222/1/222 63/1/63 62/1/62
f 220/1/220 223/1/223 50/1/50 49/1/49
f 221/1/221 224/1/224 37/1/37 36/1/36
f 222/1/222 194/1/194 64/1/64 63/1/63
f 223/1/223 196/1/196 51/1/51 50/1/50
f 224/1/224 198/1/198 38/1/38 37/1/37
f 130/1/130 129/1/129 100/1/100 99/1/99
f 164/1/164 163/1/163 79/1/79 78/1/78
f 166/1/166 165/1/165 65/1/65 66/1/66
f 161/1/161 167/1/167 93/1/93 92/1/92
f 163/1/163 168/1/168 80/1/80 79/1/79
f 165/1/165 169/1/169 67/1/67 65/1/65
f 167/1/167 170/1/170 94/1/94 93/1/93
f 168/1/168 171/1/171 81/1/81 80/1/80
f 169/1/169 172/1/172 68/1/68 67/1/67
f 170/1/170 173/1/173 95/1/95 94/1/94
f 171/1/171 174/1/174 82/1/82 81/1/81
f 172/1/172 175/1/175 69/1/69 68/1/68
f 173/1/173 176/1/176 96/1/96 95/1/95
f 174/1/174 177/1/177 83/1/83 82/1/82
f 175/1/175 178/1/178 70/1/70 69/1/69
f 176/1/176 166/1/166 66/1/66 96/1/96
f 177/1/177 179/1/179 84/1/84 83/1/83
f 178/1/178 180/1/180 71/1/71 70/1/70
f 179/1/179 181/1/181 85/1/85 84/1/84
f 180/1/180 182/1/182 72/1/72 71/1/71
f 181/1/181 183/1/183 86/1/86 85/1/85
f 182/1/182 184/1/184 73/1/73 72/1/72
f 183/1/183 185/1/185 87/1/87 86/1/86
f 184/1/184 186/1/186 74/1/74 73/1/73
f 185/1/185 187/1/187 88/1/88 87/1/87
f 186/1/186 188/1/188 75/1/75 74/1/74
f 187/1/187 189/1/189 89/1/89 88/1/88
f 188/1/188 190/1/190 76/1/76 75/1/75
f 189/1/189 191/1/191 90/1/90 89/1/89
f 190/1/190 192/1/192 77/1/77 76/1/76
f 191/1/191 162/1/162 91/1/91 90/1/90
f 192/1/192 164/1/164 78/1/78 77/1/77
f 121/1/121 122/1/122 250/1/250 249/1/249
f 132/1/132 131/1/131 127/1/127 126/1/126
f 134/1/134 133/1/133 114/1/114 113/1/113
f 129/1/129 135/1/135 101/1/101 100/1/100
f 131/1/131 136/1/136 128/1/128 127/1/127
f 133/1/133 137/1/137 115/1/115 114/1/114
f 135/1/135 138/1/138 102/1/102 101/1/101
f 136/1/136 139/1/139 98/1/98 128/1/128
f 137/1/137 140/1/140 116/1/116 115/1/115
f 138/1/138 141/1/141 103/1/103 102/1/102
f 140/1/140 142/1/142 117/1/117 116/1/116
f 141/1/141 143/1/143 104/1/104 103/1/103
f 142/1/142 144/1/144 118/1/118 117/1/117
f 143/1/143 145/1/145 105/1/105 104/1/104
f 144/1/144 146/1/146 119/1/119 118/1/118
f 145/1/145 147/1/147 106/1/106 105/1/105
f 146/1/146 148/1/148 120/1/120 119/1/119
f 147/1/147 149/1/149 107/1/107 106/1/106
f 148/1/148 150/1/150 121/1/121 120/1/120
f 149/1/149 151/1/151 108/1/108 107/1/107
f 150/1/150 152/1/152 122/1/122 121/1/121
f 151/1/151 153/1/153 109/1/109 108/1/108
f 152/1/152 154/1/154 123/1/123 122/1/122
f 153/1/153 155/1/155 110/1/110 109/1/109
f 154/1/154 156/1/156 124/1/124 123/1/123
f 155/1/155 157/1/157 111/1/111 110/1/110
f 139/1/139 158/1/158 97/1/97 98/1/98
f 156/1/156 159/1/159 125/1/125 124/1/124
f 157/1/157 160/1/160 112/1/112 111/1/111
f 158/1/158 130/1/130 99/1/99 97/1/97
f 159/1/159 132/1/132 126/1/126 125/1/125
f 160/1/160 134/1/134 113/1/113 112/1/112
f 80/1/80 81/1/81 134/1/134 160/1/160
f 93/1/93 94/1/94 132/1/132 159/1/159
f 65/1/65 67/1/67 130/1/130 158/1/158
f 79/1/79 80/1/80 160/1/160 157/1/157
f 92/1/92 93/1/93 159/1/159 156/1/156
f 66/1/66 65/1/65 158/1/158 139/1/139
f 78/1/78 79/1/79 157/1/157 155/1/155
f 91/1/91 92/1/92 156/1/156 154/1/154
f 77/1/77 78/1/78 155/1/155 153/1/153
f 90/1/90 91/1/91 154/1/154 152/1/152
f 76/1/76 77/1/77 153/1/153 151/1/151
f 89/1/89 90/1/90 152/1/152 150/1/150
f 75/1/75 76/1/76 151/1/151 149/1/149
f 88/1/88 89/1/89 150/1/150 148/1/148
f 74/1/74 75/1/75 149/1/149 147/1/147
f 87/1/87 88/1/88 148/1/148 146/1/146
f 73/1/73 74/1/74 147/1/147 145/1/145
f 86/1/86 87/1/87 146/1/146 144/1/144
f 72/1/72 73/1/73 145/1/145 143/1/143
f 85/1/85 86/1/86 144/1/144 142/1/142
f 71/1/71 72/1/72 143/1/143 141/1/141
f 84/1/84 85/1/85 142/1/142 140/1/140
f 70/1/70 71/1/71 141/1/141 138/1/138
f 83/1/83 84/1/84 140/1/140 137/1/137
f 96/1/96 66/1/66 139/1/139 136/1/136
f 69/1/69 70/1/70 138/1/138 135/1/135
f 82/1/82 83/1/83 137/1/137 133/1/133
f 95/1/95 96/1/96 136/1/136 131/1/131
f 68/1/68 69/1/69 135/1/135 129/1/129
f 81/1/81 82/1/82 133/1/133 134/1/134
f 94/1/94 95/1/95 131/1/131 132/1/132
f 67/1/67 68/1/68 129/1/129 130/1/130
f 45/1/45 46/1/46 164/1/164 192/1/192
f 58/1/58 59/1/59 162/1/162 191/1/191
f 44/1/44 45/1/45 192/1/192 190/1/190
f 57/1/57 58/1/58 191/1/191 189/1/189
f 43/1/43 44/1/44 190/1/190 188/1/188
f 56/1/56 57/1/57 189/1/189 187/1/187
f 42/1/42 43/1/43 188/1/188 186/1/186
f 55/1/55 56/1/56 187/1/187 185/1/185
f 41/1/41 42/1/42 186/1/186 184/1/184
f 54/1/54 55/1/55 185/1/185 183/1/183
f 40/1/40 41/1/41 184/1/184 182/1/182
f 53/1/53 54/1/54 183/1/183 181/1/181
f 39/1/39 40/1/40 182/1/182 180/1/180
f 52/1/52 53/1/53 181/1/181 179/1/179
f 38/1/38 39/1/39 180/1/180 178/1/178
f 51/1/51 52/1/52 179/1/179 177/1/177
f 64/1/64 34/1/34 166/1/166 176/1/176
f 37/1/37 38/1/38 178/1/178 175/1/175
f 50/1/50 51/1/51 177/1/177 174/1/174
f 63/1/63 64/1/64 176/1/176 173/1/173
f 36/1/36 37/1/37 175/1/175 172/1/172
f 49/1/49 50/1/50 174/1/174 171/1/171
f 62/1/62 63/1/63 173/1/173 170/1/170
f 35/1/35 36/1/36 172/1/172 169/1/169
f 48/1/48 49/1/49 171/1/171 168/1/168
f 61/1/61 62/1/62 170/1/170 167/1/167
f 33/1/33 35/1/35 169/1/169 165/1/165
f 47/1/47 48/1/48 168/1/168 163/1/163
f 60/1/60 61/1/61 167/1/167 161/1/161
f 34/1/34 33/1/33 165/1/165 166/1/166
f 46/1/46 47/1/47 163/1/163 164/1/164
f 59/1/59 60/1/60 161/1/161 162/1/162
f 5/1/5 6/1/6 198/1/198 224/1/224
f 18/1/18 19/1/19 196/1/196 223/1/223
f 31/1/31 32/1/32 194/1/194 222/1/222
f 4/1/4 5/1/5 224/1/224 221/1/221
f 17/1/17 18/1/18 223/1/223 220/1/220
f 30/1/30 31/1/31 222/1/222 219/1/219
f 3/1/3 4/1/4 221/1/221 218/1/218
f 16/1/16 17/1/17 220/1/220 217/1/217
f 29/1/29 30/1/30 219/1/219 216/1/216
f 2/1/2 3/1/3 218/1/218 215/1/215
f 15/1/15 16/1/16 217/1/217 214/1/214
f 28/1/28 29/1/29 216/1/216 213/1/213
f 1/1/1 2/1/2 215/1/215 193/1/193
f 14/1/14 15/1/15 214/1/214 212/1/212
f 27/1/27 28/1/28 213/1/213 211/1/211
f 13/1/13 14/1/14 212/1/212 210/1/210
f 26/1/26 27/1/27 211/1/211 209/1/209
f 12/1/12 13/1/13 210/1/210 208/1/208
f 25/1/25 26/1/26 209/1/209 207/1/207
f 11/1/11 12/1/12 208/1/208 206/1/206
f 24/1/24 25/1/25 207/1/207 205/1/205
f 10/1/10 11/1/11 206/1/206 204/1/204
f 23/1/23 24/1/24 205/1/205 203/1/203
f 9/1/9 10/1/10 204/1/204 202/1/202
f 22/1/22 23/1/23 203/1/203 201/1/201
f 8/1/8 9/1/9 202/1/202 200/1/200
f 21/1/21 22/1/22 201/1/201 199/1/199
f 7/1/7 8/1/8 200/1/200 197/1/197
f 20/1/20 21/1/21 199/1/199 195/1/195
f 6/1/6 7/1/7 197/1/197 198/1/198
f 19/1/19 20/1/20 195/1/195 196/1/196
f 32/1/32 1/1/1 193/1/193 194/1/194
f 234/1/234 235/1/235 267/1/267 266/1/266
f 108/1/108 109/1/109 237/1/237 236/1/236
f 122/1/122 123/1/123 251/1/251 250/1/250
f 109/1/109 110/1/110 238/1/238 237/1/237
f 123/1/123 124/1/124 252/1/252 251/1/251
f 110/1/110 111/1/111 239/1/239 238/1/238
f 98/1/98 97/1/97 225/1/225 226/1/226
f 124/1/124 125/1/125 253/1/253 252/1/252
f 111/1/111 112/1/112 240/1/240 239/1/239
f 97/1/97 99/1/99 227/1/227 225/1/225
f 125/1/125 126/1/126 254/1/254 253/1/253
f 112/1/112 113/1/113 241/1/241 240/1/240
f 99/1/99 100/1/100 228/1/228 227/1/227
f 126/1/126 127/1/127 255/1/255 254/1/254
f 113/1/113 114/1/114 242/1/242 241/1/241
f 100/1/100 101/1/101 229/1/229 228/1/228
f 127/1/127 128/1/128 256/1/256 255/1/255
f 114/1/114 115/1/115 243/1/243 242/1/242
f 101/1/101 102/1/102 230/1/230 229/1/229
f 128/1/128 98/1/98 226/1/226 256/1/256
f 115/1/115 116/1/116 244/1/244 243/1/243
f 102/1/102 103/1/103 231/1/231 230/1/230
f 116/1/116 117/1/117 245/1/245 244/1/244
f 103/1/103 104/1/104 232/1/232 231/1/231
f 117/1/117 118/1/118 246/1/246 245/1/245
f 104/1/104 105/1/105 233/1/233 232/1/232
f 118/1/118 119/1/119 247/1/247 246/1/246
f 105/1/105 106/1/106 234/1/234 233/1/233
f 119/1/119 120/1/120 248/1/248 247/1/247
f 106/1/106 107/1/107 235/1/235 234/1/234
f 120/1/120 121/1/121 249/1/249 248/1/248
f 107/1/107 108/1/108 236/1/236 235/1/235
f 269/1/269 270/1/270 302/1/302 301/1/301
f 248/1/248 249/1/249 281/1/281 280/1/280
f 235/1/235 236/1/236 268/1/268 267/1/267
f 249/1/249 250/1/250 282/1/282 281/1/281
f 236/1/236 237/1/237 269/1/269 268/1/268
f 250/1/250 251/1/251 283/1/283 282/1/282
f 237/1/237 238/1/238 270/1/270 269/1/269
f 251/1/251 252/1/252 284/1/284 283/1/283
f 238/1/238 239/1/239 271/1/271 270/1/270
f 226/1/226 225/1/225 257/1/257 258/1/258
f 252/1/252 253/1/253 285/1/285 284/1/284
f 239/1/239 240/1/240 272/1/272 271/1/271
f 225/1/225 227/1/227 259/1/259 257/1/257
f 253/1/253 254/1/254 286/1/286 285/1/285
f 240/1/240 241/1/241 273/1/273 272/1/272
f 227/1/227 228/1/228 260/1/260 259/1/259
f 254/1/254 255/1/255 287/1/287 286/1/286
f 241/1/241 242/1/242 274/1/274 273/1/273
f 228/1/228 229/1/229 261/1/261 260/1/260
f 255/1/255 256/1/256 288/1/288 287/1/287
f 242/1/242 243/1/243 275/1/275 274/1/274
f 229/1/229 230/1/230 262/1/262 261/1/261
f 256/1/256 226/1/226 258/1/258 288/1/288
f 243/1/243 244/1/244 276/1/276 275/1/275
f 230/1/230 231/1/231 263/1/263 262/1/262
f 244/1/244 245/1/245 277/1/277 276/1/276
f 231/1/231 232/1/232 264/1/264 263/1/263
f 245/1/245 246/1/246 278/1/278 277/1/277
f 232/1/232 233/1/233 265/1/265 264/1/264
f 246/1/246 247/1/247 279/1/279 278/1/278
f 233/1/233 234/1/234 266/1/266 265/1/265
f 247/1/247 248/1/248 280/1/280 279/1/279
f 304/1/304 305/1/305 337/1/337 336/1/336
f 283/1/283 284/1/284 316/1/316 315/1/315
f 270/1/270 271/1/271 303/1/303 302/1/302
f 258/1/258 257/1/257 289/1/289 290/1/290
f 284/1/284 285/1/285 317/1/317 316/1/316
f 271/1/271 272/1/272 304/1/304 303/1/303
f 257/1/257 259/1/259 291/1/291 289/1/289
f 285/1/285 286/1/286 318/1/318 317/1/317
f 272/1/272 273/1/273 305/1/305 304/1/304
f 259/1/259 260/1/260 292/1/292 291/1/291
f 286/1/286 287/1/287 319/1/319 318/1/318
f 273/1/273 274/1/274 306/1/306 305/1/305
f 260/1/260 261/1/261 293/1/293 292/1/292
f 287/1/287 288/1/288 320/1/320 319/1/319
f 274/1/274 275/1/275 307/1/307 306/1/306
f 261/1/261 262/1/262 294/1/294 293/1/293
f 288/1/288 258/1/258 290/1/290 320/1/320
f 275/1/275 276/1/276 308/1/308 307/1/307
f 262/1/262 263/1/263 295/1/295 294/1/294
f 276/1/276 277/1/277 309/1/309 308/1/308
f 263/1/263 264/1/264 296/1/296 295/1/295
f 277/1/277 278/1/278 310/1/310 309/1/309
f 264/1/264 265/1/265 297/1/297 296/1/296
f 278/1/278 279/1/279 311/1/311 310/1/310
f 265/1/265 266/1/266 298/1/298 297/1/297
f 279/1/279 280/1/280 312/1/312 311/1/311
f 266/1/266 267/1/267 299/1/299 298/1/298
f 280/1/280 281/1/281 313/1/313 312/1/312
f 267/1/267 268/1/268 300/1/300 299/1/299
f 281/1/281 282/1/282 314/1/314 313/1/313
f 268/1/268 269/1/269 301/1/301 300/1/300
f 282/1/282 283/1/283 315/1/315 314/1/314
f 339/1/339 340/1/340 372/1/372 371/1/371
f 291/1/291 292/1/292 324/1/324 323/1/323
f 318/1/318 319/1/319 351/1/351 350/1/350
f 305/1/305 306/1/306 338/1/338 337/1/337
f 292/1/292 293/1/293 325/1/325 324/1/324
f 319/1/319 320/1/320 352/1/352 351/1/351
f 306/1/306 307/1/307 339/1/339 338/1/338
f 293/1/293 294/1/294 326/1/326 325/1/325
f 320/1/320 290/1/290 322/1/322 352/1/352
f 307/1/307 308/1/308 340/1/340 339/1/339
f 294/1/294 295/1/295 327/1/327 326/1/326
f 308/1/308 309/1/309 341/1/341 340/1/340
f 295/1/295 296/1/296 328/1/328 327/1/327
f 309/1/309 310/1/310 342/1/342 341/1/341
f 296/1/296 297/1/297 329/1/329 328/1/328
f 310/1/310 311/1/311 343/1/343 342/1/342
f 297/1/297 298/1/298 330/1/330 329/1/329
f 311/1/311 312/1/312 344/1/344 343/1/343
f 298/1/298 299/1/299 331/1/331 330/1/330
f 312/1/312 313/1/313 345/1/345 344/1/344
f 299/1/299 300/1/300 332/1/332 331/1/331
f 313/1/313 314/1/314 346/1/346 345/1/345
f 300/1/300 301/1/301 333/1/333 332/1/332
f 314/1/314 315/1/315 347/1/347 346/1/346
f 301/1/301 302/1/302 334/1/334 333/1/333
f 315/1/315 316/1/316 348/1/348 347/1/347
f 302/1/302 303/1/303 335/1/335 334/1/334
f 290/1/290 289/1/289 321/1/321 322/1/322
f 316/1/316 317/1/317 349/1/349 348/1/348
f 303/1/303 304/1/304 336/1/336 335/1/335
f 289/1/289 291/1/291 323/1/323 321/1/321
f 317/1/317 318/1/318 350/1/350 349/1/349
f 353/1/353 355/1/355 356/1/356 357/1/357
f 326/1/326 327/1/327 359/1/359 358/1/358
f 340/1/340 341/1/341 373/1/373 372/1/372
f 327/1/327 328/1/328 360/1/360 359/1/359
f 341/1/341 342/1/342 374/1/374 373/1/373
f 328/1/328 329/1/329 361/1/361 360/1/360
f 342/1/342 343/1/343 375/1/375 374/1/374
f 329/1/329 330/1/330 362/1/362 361/1/361
f 343/1/343 344/1/344 376/1/376 375/1/375
f 330/1/330 331/1/331 363/1/363 362/1/362
f 344/1/344 345/1/345 377/1/377 376/1/376
f 331/1/331 332/1/332 364/1/364 363/1/363
f 345/1/345 346/1/346 378/1/378 377/1/377
f 332/1/332 333/1/333 365/1/365 364/1/364
f 346/1/346 347/1/347 379/1/379 378/1/378
f 333/1/333 334/1/334 366/1/366 365/1/365
f 347/1/347 348/1/348 380/1/380 379/1/379
f 334/1/334 335/1/335 367/1/367 366/1/366
f 322/1/322 321/1/321 353/1/353 354/1/354
f 348/1/348 349/1/349 381/1/381 380/1/380
f 335/1/335 336/1/336 368/1/368 367/1/367
f 321/1/321 323/1/323 355/1/355 353/1/353
f 349/1/349 350/1/350 382/1/382 381/1/381
f 336/1/336 337/1/337 369/1/369 368/1/368
f 323/1/323 324/1/324 356/1/356 355/1/355
f 350/1/350 351/1/351 383/1/383 382/1/382
f 337/1/337 338/1/338 370/1/370 369/1/369
f 324/1/324 325/1/325 357/1/357 356/1/356
f 351/1/351 352/1/352 384/1/384 383/1/383
f 338/1/338 339/1/339 371/1/371 370/1/370
f 325/1/325 326/1/326 358/1/358 357/1/357
f 352/1/352 322/1/322 354/1/354 384/1/384
f 410/1/410 409/1/409 441/1/441 442/1/442
f 12/1/12 11/1/11 395/1/395 396/1/396
f 26/1/26 25/1/25 409/1/409 410/1/410
f 13/1/13 12/1/12 396/1/396 397/1/397
f 27/1/27 26/1/26 410/1/410 411/1/411
f 14/1/14 13/1/13 397/1/397 398/1/398
f 28/1/28 27/1/27 411/1/411 412/1/412
f 15/1/15 14/1/14 398/1/398 399/1/399
f 2/1/2 1/1/1 386/1/386 385/1/385
f 29/1/29 28/1/28 412/1/412 413/1/413
f 16/1/16 15/1/15 399/1/399 400/1/400
f 3/1/3 2/1/2 385/1/385 387/1/387
f 30/1/30 29/1/29 413/1/413 414/1/414
f 17/1/17 16/1/16 400/1/400 401/1/401
f 4/1/4 3/1/3 387/1/387 388/1/388
f 31/1/31 30/1/30 414/1/414 415/1/415
f 18/1/18 17/1/17 401/1/401 402/1/402
f 5/1/5 4/1/4 388/1/388 389/1/389
f 32/1/32 31/1/31 415/1/415 416/1/416
f 19/1/19 18/1/18 402/1/402 403/1/403
f 6/1/6 5/1/5 389/1/389 390/1/390
f 1/1/1 32/1/32 416/1/416 386/1/386
f 20/1/20 19/1/19 403/1/403 404/1/404
f 7/1/7 6/1/6 390/1/390 391/1/391
f 21/1/21 20/1/20 404/1/404 405/1/405
f 8/1/8 7/1/7 391/1/391 392/1/392
f 22/1/22 21/1/21 405/1/405 406/1/406
f 9/1/9 8/1/8 392/1/392 393/1/393
f 23/1/23 22/1/22 406/1/406 407/1/407
f 10/1/10 9/1/9 393/1/393 394/1/394
f 24/1/24 23/1/23 407/1/407 408/1/408
f 11/1/11 10/1/10 394/1/394 395/1/395
f 417/1/417 418/1/418 450/1/450 449/1/449
f 397/1/397 396/1/396 428/1/428 429/1/429
f 411/1/411 410/1/410 442/1/442 443/1/443
f 398/1/398 397/1/397 429/1/429 430/1/430
f 412/1/412 411/1/411 443/1/443 444/1/444
f 399/1/399 398/1/398 430/1/430 431/1/431
f 385/1/385 386/1/386 418/1/418 417/1/417
f 413/1/413 412/1/412 444/1/444 445/1/445
f 400/1/400 399/1/399 431/1/431 432/1/432
f 387/1/387 385/1/385 417/1/417 419/1/419
f 414/1/414 413/1/413 445/1/445 446/1/446
f 401/1/401 400/1/400 432/1/432 433/1/433
f 388/1/388 387/1/387 419/1/419 420/1/420
f 415/1/415 414/1/414 446/1/446 447/1/447
f 402/1/402 401/1/401 433/1/433 434/1/434
f 389/1/389 388/1/388 420/1/420 421/1/421
f 416/1/416 415/1/415 447/1/447 448/1/448
f 403/1/403 402/1/402 434/1/434 435/1/435
f 390/1/390 389/1/389 421/1/421 422/1/422
f 386/1/386 416/1/416 448/1/448 418/1/418
f 404/1/404 403/1/403 435/1/435 436/1/436
f 391/1/391 390/1/390 422/1/422 423/1/423
f 405/1/405 404/1/404 436/1/436 437/1/437
f 392/1/392 391/1/391 423/1/423 424/1/424
f 406/1/406 405/1/405 437/1/437 438/1/438
f 393/1/393 392/1/392 424/1/424 425/1/425
f 407/1/407 406/1/406 438/1/438 439/1/439
f 394/1/394 393/1/393 425/1/425 426/1/426
f 408/1/408 407/1/407 439/1/439 440/1/440
f 395/1/395 394/1/394 426/1/426 427/1/427
f 409/1/409 408/1/408 440/1/440 441/1/441
f 396/1/396 395/1/395 427/1/427 428/1/428
f 453/1/453 452/1/452 484/1/484 485/1/485
f 445/1/445 444/1/444 476/1/476 477/1/477
f 432/1/432 431/1/431 463/1/463 464/1/464
f 419/1/419 417/1/417 449/1/449 451/1/451
f 446/1/446 445/1/445 477/1/477 478/1/478
f 433/1/433 432/1/432 464/1/464 465/1/465
f 420/1/420 419/1/419 451/1/451 452/1/452
f 447/1/447 446/1/446 478/1/478 479/1/479
f 434/1/434 433/1/433 465/1/465 466/1/466
f 421/1/421 420/1/420 452/1/452 453/1/453
f 448/1/448 447/1/447 479/1/479 480/1/480
f 435/1/435 434/1/434 466/1/466 467/1/467
f 422/1/422 421/1/421 453/1/453 454/1/454
f 418/1/418 448/1/448 480/1/480 450/1/450
f 436/1/436 435/1/435 467/1/467 468/1/468
f 423/1/423 422/1/422 454/1/454 455/1/455
f 437/1/437 436/1/436 468/1/468 469/1/469
f 424/1/424 423/1/423 455/1/455 456/1/456
f 438/1/438 437/1/437 469/1/469 470/1/470
f 425/1/425 424/1/424 456/1/456 457/1/457
f 439/1/439 438/1/438 470/1/470 471/1/471
f 426/1/426 425/1/425 457/1/457 458/1/458
f 440/1/440 439/1/439 471/1/471 472/1/472
f 427/1/427 426/1/426 458/1/458 459/1/459
f 441/1/441 440/1/440 472/1/472 473/1/473
f 428/1/428 427/1/427 459/1/459 460/1/460
f 442/1/442 441/1/441 473/1/473 474/1/474
f 429/1/429 428/1/428 460/1/460 461/1/461
f 443/1/443 442/1/442 474/1/474 475/1/475
f 430/1/430 429/1/429 461/1/461 462/1/462
f 444/1/444 443/1/443 475/1/475 476/1/476
f 431/1/431 430/1/430 462/1/462 463/1/463
f 481/1/481 482/1/482 512/1/506 511/1/505
f 480/1/480 479/1/479 511/1/505 512/1/506
f 467/1/467 466/1/466 498/1/493 499/1/494
f 454/1/454 453/1/453 485/1/485 486/1/408
f 450/1/450 480/1/480 512/1/506 482/1/482
f 468/1/468 467/1/467 499/1/494 500/1/495
f 455/1/455 454/1/454 486/1/408 487/1/486
f 469/1/469 468/1/468 500/1/495 501/1/495
f 456/1/456 455/1/455 487/1/486 488/1/486
f 470/1/470 469/1/469 501/1/495 502/1/496
f 457/1/457 456/1/456 488/1/486 489/1/486
f 471/1/471 470/1/470 502/1/496 503/1/497
f 458/1/458 457/1/457 489/1/486 490/1/487
f 472/1/472 471/1/471 503/1/497 504/1/498
f 459/1/459 458/1/458 490/1/487 491/1/488
f 473/1/473 472/1/472 504/1/498 505/1/499
f 460/1/460 459/1/459 491/1/488 492/1/489
f 474/1/474 473/1/473 505/1/499 506/1/500
f 461/1/461 460/1/460 492/1/489 493/1/483
f 475/1/475 474/1/474 506/1/500 507/1/501
f 462/1/462 461/1/461 493/1/483 494/1/481
f 476/1/476 475/1/475 507/1/501 508/1/502
f 463/1/463 462/1/462 494/1/481 495/1/490
f 449/1/449 450/1/450 482/1/482 481/1/481
f 477/1/477 476/1/476 508/1/502 509/1/503
f 464/1/464 463/1/463 495/1/490 496/1/491
f 451/1/451 449/1/449 481/1/481 483/1/483
f 478/1/478 477/1/477 509/1/503 510/1/504
f 465/1/465 464/1/464 496/1/491 497/1/492
f 452/1/452 451/1/451 483/1/483 484/1/484
f 479/1/479 478/1/478 510/1/504 511/1/505
f 466/1/466 465/1/465 497/1/492 498/1/493
