####
#
# OBJ File Generated by Meshlab
#
####
# Object rinEyes.obj
#
# Vertices: 163
# Faces: 256
#
####
mtllib ./rinEyes.obj.mtl

vn -0.1173008 0.8215059 -0.5580041
v 0.1189003 3.9294128 0.3949976
vn 0.0719967 0.7822645 -0.6187720
v 0.8615274 3.8141174 0.2216959
vn 0.2377049 0.6969145 -0.6766140
v 1.5833569 3.5100708 0.0030556
vn 0.3737880 0.5711817 -0.7307764
v 2.1231260 3.0323486 -0.2364883
vn 0.4545243 0.4293230 -0.7804418
v 2.5069351 2.4055176 -0.4890642
vn 0.5102102 0.2957059 -0.8076161
v 2.7617779 1.6591797 -0.7047491
vn 0.5651848 0.1406962 -0.8128781
v 2.8757038 0.8321228 -0.8954067
vn 0.5302213 0.0374015 -0.8470340
v 2.7971745 -0.0359192 -1.0127153
vn 0.5215938 -0.1001988 -0.8472899
v 2.7137737 -0.9031677 -1.0501719
vn 0.3911948 -0.2075972 -0.8965880
v 2.4399109 -1.7248230 -0.9884605
vn 0.2699084 -0.3013093 -0.9145284
v 2.0395088 -2.4848328 -0.8804178
vn 0.0961010 -0.3397036 -0.9356100
v 1.5015106 -3.1463013 -0.7146006
vn -0.0080004 -0.3625167 -0.9319429
v 0.9374065 -3.5450439 -0.5673389
vn -0.1217954 -0.4131844 -0.9024659
v 0.2934456 -3.8895569 -0.3839769
vn -0.2644041 -0.3402053 -0.9024139
v -0.3699827 -3.9923401 -0.2065344
vn -0.3873965 -0.3576967 -0.8496923
v -1.0170422 -3.8645630 -0.0511723
vn -0.4847967 -0.3381977 -0.8065944
v -1.6240602 -3.5472717 0.0856562
vn -0.6435817 -0.3097912 -0.6998801
v -2.1855092 -3.0455017 0.1964598
vn -0.7251164 -0.2299052 -0.6491147
v -2.5943179 -2.3872070 0.2702065
vn -0.7477086 -0.1381016 -0.6495075
v -2.8776951 -1.5821533 0.3025475
vn -0.8276277 -0.0657022 -0.5574186
v -3.0398483 -0.7474670 0.3271780
vn -0.9671668 0.0483983 -0.2494915
v -3.1040020 0.1246338 0.3498526
vn -0.9671600 0.1627933 -0.1951919
v -3.0245862 0.9902344 0.4143257
vn -0.9333768 0.3016925 -0.1943952
v -2.8038130 1.8060608 0.5056143
vn -0.8589805 0.4589895 -0.2268948
v -2.4545112 2.5333862 0.5612125
vn -0.7152154 0.6317136 -0.2990064
v -1.9561110 3.1349487 0.6014328
vn -0.5232852 0.7575785 -0.3901889
v -1.3110428 3.5811768 0.5860519
vn -0.3229059 0.8173149 -0.4772087
v -0.6004953 3.8504639 0.5205975
vn 0.0757996 0.9749953 0.2088990
v 0.2374735 4.1143799 0.6574249
vn 0.3387102 0.9315281 0.1324040
v 1.0285416 3.9926147 0.4754543
vn 0.5875081 0.8078112 0.0477007
v 1.8067856 3.6716309 0.2471333
vn 0.7886949 0.6133960 -0.0412997
v 2.3972130 3.1671448 -0.0016794
vn 0.9016163 0.4166075 -0.1163021
v 2.8170805 2.5209656 -0.2631121
vn 0.9620703 0.2257930 -0.1530953
v 3.0834284 1.7330017 -0.4957581
vn 0.9751808 0.0548989 -0.2144958
v 3.1637297 0.8446350 -0.7134342
vn 0.9615193 -0.0600012 -0.2681054
v 3.0958185 -0.0720520 -0.8498650
vn 0.9408589 -0.2095909 -0.2661884
v 2.9568920 -0.9864197 -0.9052601
vn 0.8701108 -0.3626045 -0.3338041
v 2.6569214 -1.8520203 -0.8758869
vn 0.7787166 -0.5310113 -0.3341071
v 2.2330723 -2.6251221 -0.7820463
vn 0.6464794 -0.6806783 -0.3445890
v 1.6950750 -3.2656250 -0.6538858
vn 0.4704210 -0.8347373 -0.2862128
v 1.0703573 -3.7423706 -0.4892540
vn 0.2283062 -0.9518256 -0.2047055
v 0.3901186 -4.0301819 -0.3281689
vn -0.0660970 -0.9817552 -0.1782919
v -0.3115797 -4.1144104 -0.1751738
vn -0.3615074 -0.9306191 -0.0571012
v -0.9997854 -3.9923401 -0.0016813
vn -0.6084234 -0.7934306 0.0170007
v -1.6395450 -3.6689453 0.1473646
vn -0.7786092 -0.6218073 0.0844010
v -2.1990042 -3.1600342 0.2609339
vn -0.8887944 -0.4348972 0.1445991
v -2.6502852 -2.4925232 0.3648386
vn -0.9534522 -0.2751862 0.1232938
v -2.9717131 -1.6981201 0.4241800
vn -0.9749528 -0.1332072 0.1781096
v -3.1458111 -0.8189697 0.4776163
vn -0.9366823 -0.0077999 0.3500934
v -3.1637301 0.0991821 0.5683022
vn -0.9184606 0.1054955 0.3811836
v -3.0772362 1.0114746 0.6692524
vn -0.8807184 0.2522053 0.4009084
v -2.8427463 1.8722534 0.7820301
vn -0.8077914 0.4413953 0.3906959
v -2.4711022 2.6405334 0.8457146
vn -0.6627103 0.6489100 0.3738058
v -1.9423952 3.2752380 0.8827744
vn -0.4584163 0.8227292 0.3361119
v -1.2614918 3.7467041 0.8626785
vn -0.2053905 0.9356567 0.2869867
v -0.5126715 4.0309448 0.7909050
vn 0.2226014 0.1955013 0.9551062
v 0.2801685 3.7777405 0.8516178
vn 0.3050101 0.0418014 0.9514313
v 1.0181484 3.6649780 0.6826591
vn 0.3835995 0.0011000 0.9234989
v 1.7253761 3.3684387 0.4681578
vn 0.4381856 -0.0697977 0.8961706
v 2.2507677 2.9028625 0.2329369
vn 0.4298905 -0.1514967 0.8900803
v 2.6193132 2.2914734 -0.0148821
vn 0.4103080 -0.1749034 0.8950174
v 2.8639812 1.5638733 -0.2353239
vn 0.4376113 -0.1616042 0.8845228
v 2.9717131 0.7580872 -0.4421301
vn 0.4326115 -0.1316035 0.8919237
v 2.9210548 -0.0890503 -0.5704794
vn 0.4502799 -0.0982956 0.8874604
v 2.7927513 -0.9334106 -0.6201725
vn 0.4803121 -0.0875022 0.8727220
v 2.5259619 -1.7341614 -0.5661554
vn 0.4734018 -0.1238005 0.8721033
v 2.1337452 -2.4484558 -0.4762392
vn 0.4486959 -0.1708984 0.8771920
v 1.6364498 -3.0404663 -0.3557720
vn 0.4004976 -0.1986988 0.8944946
v 1.0579691 -3.4810181 -0.2023811
vn 0.3252009 -0.2422007 0.9141024
v 0.4283895 -3.7470093 -0.0560970
vn 0.2118111 -0.4279223 0.8786459
v -0.2213268 -3.8244934 0.0805416
vn 0.1446063 -0.2285100 0.9627420
v -0.8584299 -3.7117920 0.2357016
vn 0.0735031 -0.1709072 0.9825416
v -1.4510694 -3.4123230 0.3658342
vn 0.0355007 -0.1312026 0.9907197
v -1.9693780 -2.9418030 0.4610538
vn 0.0189994 -0.0792976 0.9966699
v -2.3877001 -2.3246155 0.5483913
vn 0.0079003 -0.0589019 0.9982325
v -2.6845741 -1.5915222 0.6144428
vn 0.0137004 -0.0796026 0.9967325
v -2.8456202 -0.7793274 0.6706257
vn 0.0223005 -0.1021025 0.9945239
v -2.8622122 0.0691223 0.7532444
vn 0.0058998 -0.1112966 0.9937698
v -2.7861142 0.9123230 0.8350716
vn -0.0052001 -0.1186034 0.9929281
v -2.5668893 1.7071533 0.9454803
vn -0.0327006 -0.0853016 0.9958184
v -2.2220140 2.4160767 1.0097485
vn -0.0112996 -0.0186993 0.9997613
v -1.7291422 3.0025635 1.0501728
vn 0.0526014 0.0133004 0.9985271
v -1.1000023 3.4383240 1.0365601
vn 0.1252024 0.0448009 0.9911192
v -0.4089231 3.7007751 0.9740601
vn 0.2154997 -0.3250995 0.9207987
v 0.1012068 2.6267700 0.2055426
vn 0.0889007 -0.4537037 0.8867072
v 0.7416258 2.4469299 0.0420914
vn -0.0316005 -0.3906065 0.9200153
v 1.4435444 1.8186646 -0.3423653
vn -0.0995040 -0.2136085 0.9718387
v 1.8457222 0.8326416 -0.6239157
vn -0.1045040 -0.0867033 0.9907379
v 1.9123058 -0.0257874 -0.7646904
vn -0.0609018 0.0350011 0.9975299
v 1.7329025 -0.8786011 -0.8037252
vn -0.0017001 0.1790084 0.9838461
v 1.2017622 -1.8453369 -0.6988449
vn 0.1137038 0.2333078 0.9657323
v 0.4188766 -2.4411316 -0.5239601
vn 0.2460053 0.1673036 0.9547204
v -0.2427845 -2.5855713 -0.3873205
vn 0.3740016 0.2165009 0.9018039
v -0.8827648 -2.4053345 -0.2291908
vn 0.4782709 0.1491909 0.8654473
v -1.5853481 -1.7693176 -0.0675287
vn 0.5286974 0.0050000 0.8487957
v -1.9875212 -0.7768250 0.0389338
vn 0.5575990 -0.1068998 0.8231985
v -2.0541072 0.0828552 0.1341686
vn 0.5284071 -0.2154029 0.8212110
v -1.8744812 0.9340820 0.2191353
vn 0.4275235 -0.3813210 0.8196450
v -1.3431196 1.8948975 0.2889318
vn 0.3122982 -0.4375975 0.8431953
v -0.5604525 2.4825439 0.3368387
vn 0.2198061 -0.3377094 0.9152254
v -0.0370541 1.5656433 -0.3557730
vn 0.1062009 -0.2063017 0.9727080
v 0.6299143 1.0862427 -0.5744276
vn 0.1608026 -0.0739012 0.9842160
v 0.8619690 0.0031738 -0.7518663
vn 0.1473964 0.0281993 0.9886755
v 0.5078011 -1.0611877 -0.7274256
vn 0.2474040 0.0922015 0.9645155
v -0.2109299 -1.4934082 -0.5757990
vn 0.3424042 0.0163002 0.9394114
v -0.8778982 -1.0116272 -0.4121618
vn 0.3178880 -0.0797970 0.9447644
v -1.1099529 0.0730591 -0.3033333
vn 0.3573985 -0.2118991 0.9095961
v -0.7557878 1.1353760 -0.2591639
vn 0.2403000 -0.0775000 0.9676000
v -0.1074009 0.0434875 -0.5501728
vn 0.2470071 -0.0878025 0.9650276
v -0.1363802 0.1677856 -0.6148539
vn 0.1655920 -0.4092802 0.8972565
v -0.1082888 0.1600647 -0.6219416
vn 0.0772988 -0.3274950 0.9416857
v -0.0777578 0.1325073 -0.6387129
vn 0.0512005 -0.1839019 0.9816102
v -0.0602827 0.0895996 -0.6509314
vn 0.0831997 -0.0895997 0.9924967
v -0.0571823 0.0518188 -0.6570454
vn 0.1265008 -0.0302002 0.9915067
v -0.0651474 0.0148926 -0.6588144
vn 0.1476953 0.0738976 0.9862684
v -0.0881548 -0.0274658 -0.6542826
vn 0.2085057 0.0883024 0.9740267
v -0.1224432 -0.0530396 -0.6465902
vn 0.2418050 -0.0763016 0.9673203
v -0.1511993 -0.0595398 -0.6406679
vn 0.2860017 0.0821005 0.9547055
v -0.1790733 -0.0517273 -0.6337690
vn 0.3407985 0.0587997 0.9382958
v -0.2098236 -0.0238953 -0.6268663
vn 0.3540897 -0.0395988 0.9343728
v -0.2272997 0.0194092 -0.6221476
vn 0.3897856 -0.0980964 0.9156660
v -0.2301760 0.0568237 -0.6179934
vn 0.4123035 -0.1942017 0.8901076
v -0.2224331 0.0939941 -0.6142511
vn 0.3606844 -0.3341855 0.8707622
v -0.1992073 0.1359253 -0.6111116
vn 0.2632135 -0.4062208 0.8750448
v -0.1651363 0.1615601 -0.6089296
vn 0.2218048 -0.3132067 0.9234198
v -0.1412468 0.1216125 -0.6369257
vn 0.1321000 -0.1908000 0.9726999
v -0.1120443 0.1005249 -0.6463861
vn 0.1926975 -0.0762990 0.9782874
v -0.1020937 0.0533142 -0.6540756
vn 0.1758936 0.0093997 0.9843643
v -0.1175766 0.0070496 -0.6530952
vn 0.2470030 0.0607007 0.9671116
v -0.1489887 -0.0118408 -0.6463861
vn 0.3134965 -0.0003000 0.9495893
v -0.1779699 0.0090332 -0.6392984
vn 0.2857887 -0.0773969 0.9551621
v -0.1879225 0.0565186 -0.6345568
vn 0.3329035 -0.1972021 0.9221098
v -0.1726589 0.1027832 -0.6327887
vn 0.2390088 -0.0773028 0.9679355
v -0.1443434 0.0553894 -0.6454077
vn 0.2430090 -0.2209082 0.9445350
v -0.1239920 0.2080078 -0.5838852
vn 0.0630017 -0.1212032 0.9906264
v -0.0003309 0.0427856 -0.6312122
vn 0.2626905 0.0282990 0.9644651
v -0.1432381 -0.1169128 -0.6183872
vn 0.4064028 -0.1327009 0.9040062
v -0.2668953 0.0482178 -0.5708733
vn 0.2435058 -0.2085050 0.9472226
v -0.1286373 0.1408691 -0.5992670
vn 0.2523986 -0.1943989 0.9478946
v -0.1160269 0.1372681 -0.6030264
vn 0.1145970 -0.1268966 0.9852740
v -0.0560789 0.0587463 -0.6258898
vn 0.1053023 -0.1196026 0.9872217
v -0.0558567 0.0457764 -0.6276579
vn 0.1318035 -0.1213032 0.9838259
v -0.0576277 0.0333557 -0.6290483
vn 0.2297072 -0.0350011 0.9726303
v -0.1275311 -0.0522766 -0.6235228
vn 0.2614032 -0.0059001 0.9652117
v -0.1412468 -0.0555420 -0.6207552
vn 0.2961842 -0.0269986 0.9547492
v -0.1536341 -0.0515442 -0.6172047
vn 0.3672040 -0.1212013 0.9222102
v -0.2129230 0.0357666 -0.5941496
vn 0.3795898 -0.1292965 0.9160753
v -0.2140265 0.0487976 -0.5919704
vn 0.3821108 -0.1459041 0.9125258
v -0.2111492 0.0623169 -0.5907860
vn 0.2397995 -0.1999996 0.9499981
v -0.1427946 0.1380615 -0.5967073
vn 0.2391901 -0.1926920 0.9516606
v -0.1335049 0.0936584 -0.6087418
vn 0.1921005 -0.1719005 0.9662027
v -0.1054096 0.0897827 -0.6150427
vn 0.1404044 -0.1085034 0.9841309
v -0.1003237 0.0474243 -0.6217546
vn 0.1790954 -0.0330992 0.9832748
v -0.1080637 0.0075684 -0.6233349
vn 0.2410997 -0.0368999 0.9697986
v -0.1381502 0.0049438 -0.6185932
vn 0.3264831 0.0257987 0.9448510
v -0.1662455 0.0103455 -0.6101141
vn 0.3370865 -0.1154954 0.9343626
v -0.1715536 0.0495300 -0.6055832
vn 0.2630997 -0.1837998 0.9470989
v -0.1615992 0.0901184 -0.6024227
vn 0.2313977 -0.1084989 0.9667902
v -0.1357155 0.0485535 -0.6172047
vn 0.1498946 -0.1318953 0.9798650
v -0.0976658 0.0792542 -0.6176176
vn 0.3079019 -0.1397009 0.9411058
v -0.1728802 0.0786743 -0.6018410
vn 0.3201003 -0.0788001 0.9441009
v -0.1759768 0.0234985 -0.6079531
vn 0.1612071 -0.0640028 0.9848431
v -0.0987740 0.0188293 -0.6244984
# 163 vertices, 0 vertices normals


usemtl material_0
vt 0.9833810 0.8560990
vt 0.9798800 0.8896310
vt 0.9452380 0.8577460
f 63/1/63 62/2/62 88/3/88
vt 0.9681020 0.7560920
vt 0.9771250 0.7878760
vt 0.9415400 0.7894200
f 66/4/66 65/5/65 90/6/90
vt 0.7810630 0.7962680
vt 0.7869910 0.7628660
vt 0.8141660 0.7948510
f 77/7/77 76/8/76 96/9/96
vt 0.7887520 0.9004370
vt 0.7819260 0.8666790
vt 0.8169700 0.8646390
f 80/10/80 79/11/79 98/12/98
vt 0.9314310 0.8984990
vt 0.9043830 0.8675720
f 88/3/88 87/13/87 102/14/102
vt 0.9236790 0.7514310
vt 0.9006230 0.7821890
f 91/15/91 90/6/90 104/16/104
vt 0.8282790 0.7548920
vt 0.8535090 0.7845950
f 96/9/96 95/17/95 106/18/106
vt 0.8346980 0.9043370
vt 0.8569820 0.8706360
f 99/19/99 98/12/98 108/20/108
vt 0.9403930 0.9682280
vt 0.9068940 0.9261720
vt 0.9588510 0.9472820
f 59/21/59 86/22/86 60/23/60
vt 0.8613180 0.9291100
vt 0.8395340 0.9744770
vt 0.8173460 0.9558700
f 100/24/100 83/25/83 82/26/82
vt 0.8307000 0.6885270
vt 0.8526200 0.7294060
vt 0.8124600 0.7076370
f 73/27/73 94/28/94 74/29/74
vt 0.8971780 0.7279560
vt 0.9180640 0.6862760
vt 0.9378910 0.7040340
f 92/30/92 69/31/69 68/32/68
vt 0.8814620 0.8875730
f 86/22/86 101/33/101 87/13/87
f 101/33/101 102/14/102 87/13/87
vt 0.8845080 0.9343720
f 100/24/100 85/34/85 83/25/83
vt 0.8641660 0.9854070
f 85/34/85 84/35/84 83/25/83
vt 0.9124620 0.8240840
vt 0.9475310 0.8231950
f 103/36/103 89/37/89 102/14/102
f 89/37/89 88/3/88 102/14/102
vt 0.8003380 0.9306600
f 99/19/99 100/24/100 81/38/81
f 100/24/100 82/26/82 81/38/81
vt 0.8113700 0.8297630
vt 0.7798940 0.8314460
f 97/39/97 98/12/98 78/40/78
f 98/12/98 79/11/79 78/40/78
f 90/6/90 89/37/89 104/16/104
f 89/37/89 103/36/103 104/16/104
f 99/19/99 81/38/81 98/12/98
f 81/38/81 80/10/80 98/12/98
vt 0.7976080 0.7328280
f 74/29/74 94/28/94 75/41/75
f 94/28/94 95/17/95 75/41/75
f 98/12/98 97/39/97 108/20/108
vt 0.8452990 0.8279540
f 97/39/97 107/42/107 108/20/108
vt 0.8515430 0.6764970
vt 0.8746500 0.7222300
f 72/43/72 93/44/93 73/27/73
f 93/44/93 94/28/94 73/27/73
f 77/7/77 96/9/96 78/40/78
f 96/9/96 97/39/97 78/40/78
f 107/42/107 97/39/97 106/18/106
f 97/39/97 96/9/96 106/18/106
vt 0.8763130 0.7653310
f 104/16/104 105/45/105 91/15/91
f 105/45/105 92/30/92 91/15/91
f 93/44/93 92/30/92 94/28/94
f 92/30/92 105/45/105 94/28/94
f 76/8/76 75/41/75 96/9/96
f 75/41/75 95/17/95 96/9/96
f 94/28/94 105/45/105 95/17/95
f 105/45/105 106/18/106 95/17/95
f 101/33/101 86/22/86 100/24/100
f 86/22/86 85/34/85 100/24/100
vt 0.8796850 0.8261400
f 109/46/109 106/18/106 104/16/104
f 106/18/106 105/45/105 104/16/104
f 109/46/109 108/20/108 106/18/106
f 108/20/108 107/42/107 106/18/106
f 108/20/108 101/33/101 99/19/99
f 101/33/101 100/24/100 99/19/99
f 101/33/101 108/20/108 102/14/102
f 108/20/108 109/46/109 102/14/102
f 109/46/109 104/16/104 102/14/102
f 104/16/104 103/36/103 102/14/102
vt 0.9582090 0.7206880
vt 0.9517700 0.7262130
vt 0.9724030 0.7511080
f 39/47/39 11/48/11 38/49/38
vt 0.9651360 0.7559610
f 11/48/11 10/50/10 38/49/38
vt 0.9401110 0.6953540
vt 0.9336890 0.7001400
f 40/51/40 12/52/12 39/47/39
f 12/52/12 11/48/11 39/47/39
vt 0.9189380 0.6763090
vt 0.9146100 0.6842710
f 41/53/41 13/54/13 40/51/40
f 13/54/13 12/52/12 40/51/40
vt 0.9824530 0.7851600
vt 0.9742530 0.7880540
vt 0.9871910 0.8213910
f 37/55/37 9/56/9 36/57/36
vt 0.9770760 0.8221490
f 9/56/9 8/58/8 36/57/36
f 38/49/38 10/50/10 37/55/37
f 10/50/10 9/56/9 37/55/37
vt 0.8716410 0.6610610
vt 0.8697790 0.6660180
vt 0.8957300 0.6646460
f 43/59/43 15/60/15 42/61/42
vt 0.8926190 0.6703760
f 15/60/15 14/62/14 42/61/42
vt 0.9896470 0.8582870
f 36/57/36 8/58/8 35/63/35
vt 0.9798020 0.8567880
f 8/58/8 7/64/7 35/63/35
vt 0.9871740 0.8949020
vt 0.9761150 0.8904990
vt 0.9782840 0.9280720
f 34/65/34 6/66/6 33/67/33
vt 0.9675990 0.9215570
f 6/66/6 5/68/5 33/67/33
vt 0.8253920 0.6784960
vt 0.8262290 0.6834950
vt 0.8477430 0.6656760
f 45/69/45 17/70/17 44/71/44
vt 0.8473710 0.6709130
f 17/70/17 16/72/16 44/71/44
vt 0.7898280 0.7259530
vt 0.7923320 0.7302050
vt 0.8057990 0.6989520
f 47/73/47 19/74/19 46/75/46
vt 0.8066320 0.7036320
f 19/74/19 18/76/18 46/75/46
vt 0.7784900 0.7582260
vt 0.7825070 0.7627740
f 48/77/48 20/78/20 47/73/47
f 20/78/20 19/74/19 47/73/47
vt 0.9160130 0.9935920
vt 0.9106770 0.9835510
vt 0.8879370 0.9999050
f 30/79/30 2/80/2 29/81/29
vt 0.8845680 0.9894340
f 2/80/2 1/82/1 29/81/29
f 44/71/44 16/72/16 43/59/43
f 16/72/16 15/60/15 43/59/43
vt 0.9639410 0.9561650
f 33/67/33 5/68/5 32/83/32
vt 0.9545330 0.9484940
f 5/68/5 4/84/4 32/83/32
vt 0.9434090 0.9786790
vt 0.9358790 0.9695930
f 31/85/31 3/86/3 30/79/30
f 3/86/3 2/80/2 30/79/30
f 32/83/32 4/84/4 31/85/31
f 4/84/4 3/86/3 31/85/31
f 46/75/46 18/76/18 45/69/45
f 18/76/18 17/70/17 45/69/45
vt 0.8612220 0.9972310
f 84/35/84 56/87/56 83/25/83
vt 0.8347050 0.9855230
f 56/87/56 55/88/55 83/25/83
vt 0.9152770 0.9820930
f 85/34/85 58/89/58 84/35/84
vt 0.8888840 0.9879320
f 58/89/58 57/90/57 84/35/84
f 58/89/58 85/34/85 59/21/59
f 85/34/85 86/22/86 59/21/59
f 42/61/42 14/62/14 41/53/41
f 14/62/14 13/54/13 41/53/41
vt 0.9815300 0.8216720
f 63/1/63 88/3/88 64/91/64
f 88/3/88 89/37/89 64/91/64
vt 0.9715910 0.9205220
f 62/2/62 61/92/61 88/3/88
f 61/92/61 87/13/87 88/3/88
f 60/23/60 86/22/86 61/92/61
f 86/22/86 87/13/87 61/92/61
f 89/37/89 90/6/90 64/91/64
f 90/6/90 65/5/65 64/91/64
vt 0.8738490 0.6721400
vt 0.8963620 0.6754260
f 71/93/71 70/94/70 72/43/72
f 70/94/70 93/44/93 72/43/72
f 92/30/92 93/44/93 69/31/69
f 93/44/93 70/94/70 69/31/69
vt 0.9548140 0.7276860
f 91/15/91 92/30/92 67/95/67
f 92/30/92 68/32/68 67/95/67
f 66/4/66 90/6/90 67/95/67
f 90/6/90 91/15/91 67/95/67
f 35/63/35 7/64/7 34/65/34
f 7/64/7 6/66/6 34/65/34
f 29/81/29 1/82/1 56/87/56
vt 0.8592190 0.9868870
f 1/82/1 28/96/28 56/87/56
f 57/90/57 29/81/29 84/35/84
f 29/81/29 56/87/56 84/35/84
f 83/25/83 55/88/55 82/26/82
vt 0.8108430 0.9655660
f 55/88/55 54/97/54 82/26/82
f 82/26/82 54/97/54 81/38/81
vt 0.7927120 0.9385080
f 54/97/54 53/98/53 81/38/81
f 75/41/75 47/73/47 74/29/74
f 47/73/47 46/75/46 74/29/74
f 76/8/76 48/77/48 75/41/75
f 48/77/48 47/73/47 75/41/75
vt 0.7803100 0.9060050
f 80/10/80 52/99/52 79/11/79
vt 0.7730710 0.8697270
f 52/99/52 51/100/51 79/11/79
f 81/38/81 53/98/53 80/10/80
f 53/98/53 52/99/52 80/10/80
vt 0.7721670 0.7940640
f 77/7/77 49/101/49 76/8/76
f 49/101/49 48/77/48 76/8/76
f 79/11/79 51/100/51 78/40/78
vt 0.7708710 0.8318270
f 51/100/51 50/102/50 78/40/78
f 78/40/78 50/102/50 77/7/77
f 50/102/50 49/101/49 77/7/77
vt 0.7744670 0.8319910
f 50/102/50 22/103/22 49/101/49
vt 0.7768260 0.7965880
f 22/103/22 21/104/21 49/101/49
f 49/101/49 21/104/21 48/77/48
f 21/104/21 20/78/20 48/77/48
vt 0.7766810 0.8674820
f 51/100/51 23/105/23 50/102/50
f 23/105/23 22/103/22 50/102/50
vt 0.7835490 0.9014090
f 52/99/52 24/106/24 51/100/51
f 24/106/24 23/105/23 51/100/51
vt 0.8119980 0.9571820
f 54/97/54 26/107/26 53/98/53
vt 0.7951190 0.9317960
f 26/107/26 25/108/25 53/98/53
f 61/92/61 33/67/33 60/23/60
f 33/67/33 32/83/32 60/23/60
f 60/23/60 32/83/32 59/21/59
f 32/83/32 31/85/31 59/21/59
f 68/32/68 40/51/40 67/95/67
f 40/51/40 39/47/39 67/95/67
f 53/98/53 25/108/25 52/99/52
f 25/108/25 24/106/24 52/99/52
f 71/93/71 43/59/43 70/94/70
f 43/59/43 42/61/42 70/94/70
f 72/43/72 44/71/44 71/93/71
f 44/71/44 43/59/43 71/93/71
f 73/27/73 45/69/45 72/43/72
f 45/69/45 44/71/44 72/43/72
f 69/31/69 41/53/41 68/32/68
f 41/53/41 40/51/40 68/32/68
f 70/94/70 42/61/42 69/31/69
f 42/61/42 41/53/41 69/31/69
f 74/29/74 46/75/46 73/27/73
f 46/75/46 45/69/45 73/27/73
f 59/21/59 31/85/31 58/89/58
f 31/85/31 30/79/30 58/89/58
vt 0.8343400 0.9758860
f 55/88/55 27/109/27 54/97/54
f 27/109/27 26/107/26 54/97/54
f 56/87/56 28/96/28 55/88/55
f 28/96/28 27/109/27 55/88/55
f 58/89/58 30/79/30 57/90/57
f 30/79/30 29/81/29 57/90/57
f 67/95/67 39/47/39 66/4/66
f 39/47/39 38/49/38 66/4/66
f 65/5/65 37/55/37 64/91/64
f 37/55/37 36/57/36 64/91/64
f 63/1/63 35/63/35 62/2/62
f 35/63/35 34/65/34 62/2/62
f 62/2/62 34/65/34 61/92/61
f 34/65/34 33/67/33 61/92/61
f 66/4/66 38/49/38 65/5/65
f 38/49/38 37/55/37 65/5/65
f 64/91/64 36/57/36 63/1/63
f 36/57/36 35/63/35 63/1/63
vt 0.8815540 0.8275950
vt 0.8809370 0.8293300
vt 0.8798200 0.8280270
f 113/110/113 112/111/112 127/112/127
vt 0.8806370 0.8229610
vt 0.8814150 0.8246210
vt 0.8796560 0.8243160
f 116/113/116 115/114/115 129/115/129
vt 0.8759160 0.8248880
vt 0.8765110 0.8231680
vt 0.8776080 0.8244280
f 121/116/121 120/117/120 131/118/131
vt 0.8768150 0.8295330
vt 0.8760530 0.8278590
vt 0.8777650 0.8281520
f 124/119/124 123/120/123 133/121/133
vt 0.8789450 0.8260830
vt 0.8799470 0.8277260
vt 0.8789930 0.8278920
f 159/122/159 152/123/152 151/124/151
vt 0.8815770 0.8254610
vt 0.8834890 0.8258400
vt 0.8816320 0.8259570
f 143/125/143 136/126/136 142/127/142
vt 0.8816200 0.8264730
f 141/128/141 142/127/142 136/126/136
vt 0.8763540 0.8267010
vt 0.8744360 0.8262040
vt 0.8762620 0.8261630
f 149/129/149 138/130/138 148/131/148
vt 0.8763060 0.8256420
f 147/132/147 148/131/148 138/130/138
vt 0.8783490 0.8221250
vt 0.8786980 0.8195480
vt 0.8787720 0.8219600
f 146/133/146 137/134/137 145/135/145
vt 0.8792360 0.8220810
f 144/136/144 145/135/145 137/134/137
vt 0.8792350 0.8325100
vt 0.8786480 0.8296880
vt 0.8791260 0.8297960
f 135/137/135 150/138/150 139/139/139
vt 0.8795570 0.8296430
f 139/139/139 140/140/140 135/137/135
vt 0.8777180 0.8261530
vt 0.8776620 0.8273170
f 157/141/157 159/122/159 161/142/161
vt 0.8775780 0.8251170
f 159/122/159 157/141/157 162/143/162
vt 0.8801960 0.8248930
vt 0.8801360 0.8260310
f 163/144/163 153/145/153 159/122/159
vt 0.8788680 0.8243540
f 159/122/159 162/143/162 155/146/155
vt 0.8779080 0.8245930
f 162/143/162 156/147/156 155/146/155
vt 0.8780390 0.8277720
f 158/148/158 161/142/161 151/124/151
f 161/142/161 159/122/159 151/124/151
f 159/122/159 153/145/153 152/123/152
vt 0.8802120 0.8273020
f 153/145/153 160/149/160 152/123/152
f 157/141/157 161/142/161 148/131/148
f 161/142/161 149/129/149 148/131/148
vt 0.8798830 0.8244500
f 154/150/154 163/144/163 155/146/155
f 163/144/163 159/122/159 155/146/155
vt 0.8787440 0.8262440
f 134/151/134 131/118/131 129/115/129
vt 0.8785930 0.8235900
f 131/118/131 130/152/130 129/115/129
f 134/151/134 129/115/129 127/112/127
vt 0.8801740 0.8261390
f 129/115/129 128/153/128 127/112/127
f 134/151/134 133/121/133 131/118/131
vt 0.8772630 0.8263140
f 133/121/133 132/154/132 131/118/131
vt 0.8758070 0.8263780
f 132/154/132 122/155/122 131/118/131
f 122/155/122 121/116/121 131/118/131
f 123/120/123 122/155/122 133/121/133
f 122/155/122 132/154/132 133/121/133
vt 0.8788210 0.8288870
f 126/156/126 133/121/133 127/112/127
f 133/121/133 134/151/134 127/112/127
f 133/121/133 126/156/126 124/119/124
vt 0.8779420 0.8305640
f 126/156/126 125/157/125 124/119/124
vt 0.8798720 0.8304710
f 126/156/126 111/158/111 125/157/125
vt 0.8789160 0.8307930
f 111/158/111 110/159/110 125/157/125
vt 0.8816740 0.8260840
f 128/153/128 114/160/114 127/112/127
f 114/160/114 113/110/113 127/112/127
f 111/158/111 126/156/126 112/111/112
f 126/156/126 127/112/127 112/111/112
vt 0.8775540 0.8220530
f 119/161/119 130/152/130 120/117/120
f 130/152/130 131/118/131 120/117/120
vt 0.8785020 0.8217300
vt 0.8794750 0.8219720
f 118/162/118 117/163/117 119/161/119
f 117/163/117 130/152/130 119/161/119
f 115/114/115 114/160/114 129/115/129
f 114/160/114 128/153/128 129/115/129
f 129/115/129 130/152/130 116/113/116
f 130/152/130 117/163/117 116/113/116
f 141/128/141 160/149/160 142/127/142
f 160/149/160 153/145/153 142/127/142
f 140/140/140 139/139/139 152/123/152
f 139/139/139 151/124/151 152/123/152
f 147/132/147 162/143/162 148/131/148
f 162/143/162 157/141/157 148/131/148
f 155/146/155 156/147/156 145/135/145
f 156/147/156 146/133/146 145/135/145
f 153/145/153 163/144/163 142/127/142
f 163/144/163 143/125/143 142/127/142
f 144/136/144 154/150/154 145/135/145
f 154/150/154 155/146/155 145/135/145
f 151/124/151 139/139/139 158/148/158
f 139/139/139 150/138/150 158/148/158
# 256 faces, 163 coords texture

# End of File
