# Blender 4.4.3
# www.blender.org
mtllib wall_m.mtl
o Plane.004_Plane.010
v -46.730198 90.000000 -11.000007
v -46.730198 209.999985 -11.000016
v 46.730198 90.000000 -11.000007
v 46.730198 209.999985 -11.000016
v -46.730198 90.000000 -15.000008
v -46.730198 209.999985 -15.000017
v 46.730198 90.000000 -15.000008
v 46.730198 209.999985 -15.000017
v 46.730198 90.000000 -5.000007
v -46.730198 90.000000 -5.000007
v -46.730198 209.999985 -5.000016
v 46.730198 209.999985 -5.000016
v 46.730198 90.000000 14.999994
v -46.730198 90.000000 14.999994
v -46.730198 209.999985 14.999985
v 46.730198 209.999985 14.999985
v 46.730198 209.999985 -15.000017
v 46.730198 90.000000 -15.000008
v -46.730198 209.999985 -15.000017
v -46.730198 90.000000 -15.000008
v 46.730198 90.000000 14.999994
v -46.730198 90.000000 14.999994
v -46.730198 209.999985 14.999985
v 46.730198 209.999985 14.999985
v 140.190704 250.000000 14.999982
v 140.190704 0.000001 15.000001
v -140.190704 0.000001 15.000001
v -140.190704 250.000000 14.999982
v -140.190704 -0.000001 -15.000001
v 140.190704 -0.000001 -15.000001
v -140.190704 250.000000 -15.000020
v 140.190704 250.000000 -15.000020
vn -0.0000 -1.0000 -0.0000
vn -1.0000 -0.0000 -0.0000
vn -0.0000 1.0000 -0.0000
vn 1.0000 -0.0000 -0.0000
vn -0.0000 -0.0000 -1.0000
vn -0.0000 -0.0000 1.0000
s 1
usemtl Material.001
f 2//1 6//1 8//1 4//1
f 4//2 8//2 7//2 3//2
f 1//3 3//3 7//3 5//3
f 2//4 1//4 5//4 6//4
f 9//3 10//3 14//3 13//3
f 9//2 13//2 16//2 12//2
f 10//4 11//4 15//4 14//4
f 12//1 16//1 15//1 11//1
f 20//5 29//5 31//5 19//5
f 18//5 17//5 32//5 30//5
f 19//5 31//5 32//5 17//5
f 20//5 18//5 30//5 29//5
f 25//6 28//6 23//6 24//6
f 26//6 21//6 22//6 27//6
f 26//6 25//6 24//6 21//6
f 27//6 22//6 23//6 28//6
