# Blender 4.4.3
# www.blender.org
mtllib wall.mtl
o Plane.004_Plane.010
v -104.675644 201.600006 -24.640030
v -104.675644 470.399963 -24.640072
v 104.675644 201.600006 -24.640030
v 104.675644 470.399963 -24.640072
v -104.675644 201.600006 -33.600033
v -104.675644 470.399963 -33.600075
v 104.675644 201.600006 -33.600033
v 104.675644 470.399963 -33.600075
v 104.675644 201.600006 -11.200031
v -104.675644 201.600006 -11.200031
v -104.675644 470.399963 -11.200071
v 104.675644 470.399963 -11.200071
v 104.675644 201.600006 33.599972
v -104.675644 201.600006 33.599972
v -104.675644 470.399963 33.599930
v 104.675644 470.399963 33.599930
v 104.675644 470.399963 -33.600075
v 104.675644 201.600006 -33.600033
v -104.675644 470.399963 -33.600075
v -104.675644 201.600006 -33.600033
v 104.675644 201.600006 33.599972
v -104.675644 201.600006 33.599972
v -104.675644 470.399963 33.599930
v 104.675644 470.399963 33.599930
v 314.027191 560.000000 33.599918
v 314.027191 0.000005 33.600002
v -314.027191 0.000005 33.600002
v -314.027191 560.000000 33.599918
v -314.027191 -0.000005 -33.600002
v 314.027191 -0.000005 -33.600002
v -314.027191 560.000000 -33.600086
v 314.027191 560.000000 -33.600086
vn -0.0000 -1.0000 -0.0000
vn -1.0000 -0.0000 -0.0000
vn -0.0000 1.0000 -0.0000
vn 1.0000 -0.0000 -0.0000
vn -0.0000 -0.0000 -1.0000
vn -0.0000 -0.0000 1.0000
s 1
usemtl Material.001
f 6//1 4//1 2//1
f 8//2 3//2 4//2
f 3//3 5//3 1//3
f 1//4 6//4 2//4
f 10//3 13//3 9//3
f 13//2 12//2 9//2
f 11//4 14//4 10//4
f 16//1 11//1 12//1
f 20//5 31//5 19//5
f 18//5 32//5 30//5
f 31//5 17//5 19//5
f 20//5 30//5 29//5
f 28//6 24//6 25//6
f 21//6 27//6 26//6
f 25//6 21//6 26//6
f 22//6 28//6 27//6
f 6//1 8//1 4//1
f 8//2 7//2 3//2
f 3//3 7//3 5//3
f 1//4 5//4 6//4
f 10//3 14//3 13//3
f 13//2 16//2 12//2
f 11//4 15//4 14//4
f 16//1 15//1 11//1
f 20//5 29//5 31//5
f 18//5 17//5 32//5
f 31//5 32//5 17//5
f 20//5 18//5 30//5
f 28//6 23//6 24//6
f 21//6 22//6 27//6
f 25//6 24//6 21//6
f 22//6 23//6 28//6
